<?xml version="1.0" standalone="no"?>
<!DOCTYPE svg PUBLIC "-//W3C//DTD SVG 1.1//EN" "http://www.w3.org/Graphics/SVG/1.1/DTD/svg11.dtd" >
<svg>
<metadata>
Created by FontForge 20090622 at Sat Nov 10 04:59:18 2018
 By ffonts
Copyright (c) 2018 by Craft Supply Co. All rights reserved.
</metadata>
<defs>
<font id="ComodoFree-Vintage" horiz-adv-x="853" >
  <font-face 
    font-family="Comodo Free Vintage"
    font-weight="400"
    font-stretch="normal"
    units-per-em="1000"
    panose-1="0 0 0 0 0 0 0 0 0 0"
    ascent="800"
    descent="-200"
    x-height="693"
    cap-height="695"
    bbox="58 -128 898.571 714"
    underline-thickness="0"
    underline-position="0"
    unicode-range="U+000A-U+007A"
  />
<missing-glyph horiz-adv-x="500" 
 />
    <glyph glyph-name=".notdef" horiz-adv-x="500" 
 />
    <glyph glyph-name="uni0000" horiz-adv-x="0" 
 />
    <glyph glyph-name="uni0000" horiz-adv-x="0" 
 />
    <glyph glyph-name="uni000D" unicode="&#xd;" horiz-adv-x="0" 
 />
    <glyph glyph-name="space" unicode=" " horiz-adv-x="341" 
 />
    <glyph glyph-name="uni000A" unicode="&#xa;" horiz-adv-x="0" 
 />
    <glyph glyph-name="A" unicode="A" horiz-adv-x="743" 
d="M342 350q3 8 4 12.5t1 8.5t1 9t4 12q6 15 11 19t11 19t5.5 21t5.5 21q3 8 11 8q9 0 12 -9l17 -40q6 -15 10 -19t10 -19t6 -21t6 -21q2 -6 -1 -11.5t-10 -5.5q-17 0 -23 1.5t-23 1.5t-23 -1.5t-23 -1.5q-7 0 -9 4.5t0 10.5zM320 653q-12 -8 -18 -13t-9 -9.5t-4 -10
t-4 -13.5t-5.5 -12.5t-5.5 -8.5t-5.5 -8.5t-5.5 -12.5t-4 -13t-1.5 -9.5t-1.5 -10t-4 -13.5l-5 -13t-4.5 -8.5t-4.5 -8.5l-5 -13l-15 -44q-3 -8 -4 -13t-2 -9.5t-2 -10t-4 -13.5t-5.5 -12.5t-4.5 -8.5t-4.5 -8.5t-5.5 -12.5l-15 -44l-5 -13t-4.5 -8.5t-4.5 -8.5l-5 -13
t-4.5 -13t-2 -9.5t-2 -9.5t-4.5 -13l-33 -88q-3 -8 -4 -13t-2 -9.5t-2 -10t-4 -13.5q-4 -10 -6 -19.5t1 -18.5q2 -7 9 -15t15.5 -15t18 -11t17.5 -4v3q23 0 35 9t21 30q3 9 5.5 14t5 9.5t5 9.5t5.5 14t4.5 14.5t3 10t3 10t4.5 14.5t5.5 14t4 9.5t4 9.5t5.5 14q5 11 15 16
t22 5q8 0 13 1t9 1.5t9 1.5t13 1t13 -1t9 -2.5t9 -2.5t13 -1t13 0.5t9 0.5t9 0.5t13 0.5h44q23 0 33 -23q3 -9 6 -14t5 -9t5 -9t6 -14l34 -96q8 -17 23.5 -30t35.5 -13v2q8 0 17 4.5t18 11.5t16 15.5t9 15.5q3 9 1 18t-6 19q-3 8 -4.5 13t-2 9.5t-2 9.5t-4.5 13l-16 44
l-5 13t-4 8.5t-4 8.5l-5 13l-17 44q-3 8 -4.5 13t-2 9.5t-2 9.5t-4.5 13l-16 44l-5 13t-4.5 8.5t-4.5 8.5l-5 13t-4.5 13t-3 9.5t-3 9.5t-4.5 13l-15 44q-3 8 -4.5 13t-2.5 9.5t-2.5 9.5t-4.5 13l-17 44q-3 8 -5.5 12.5t-4.5 8.5t-4.5 8.5t-5.5 12.5t-4.5 13t-2 9.5t-2 9.5
t-4.5 13q-4 9 -12 18t-18 16t-21.5 11t-21.5 4q-9 -2 -17 -4q-7 -2 -14 -4.5t-12 -6.5q-10 -7 -19.5 -14.5t-14.5 -18.5z" />
    <glyph glyph-name="B" unicode="B" horiz-adv-x="628" 
d="M204 287q0 16 12.5 27.5t28.5 11.5q14 0 19 -2.5t19 -2.5t19 0.5t19 0.5q23 0 44 -5.5t37.5 -17t26 -29t9.5 -42.5q0 -15 -6 -29.5t-16.5 -27t-23.5 -22t-28 -12.5l-23 -6t-19 -3q-14 0 -19 3t-19 3t-19 0.5t-19 0.5q-16 0 -27 9.5t-11 25.5q0 14 -2 19t-2 19t3 19t2 19
q-1 15 -3 20t-2 19v2zM298 443q-10 0 -15.5 0.5t-10.5 0.5t-10.5 0.5t-15.5 0.5q-16 0 -25.5 11.5t-9.5 27.5v19t-0.5 13t-0.5 13v19q0 16 9.5 25t25.5 9q10 0 15.5 0.5l10.5 1l10.5 1t15.5 0.5q20 0 38.5 -6.5t29.5 -24.5q4 -7 4 -16.5v-21.5q0 -20 -8 -36.5t-27 -24.5
q-12 -5 -22.5 -8t-15.5 -3zM464 392q-4 3 -4.5 9t1.5 11q9 14 14.5 25t9 21.5t5 23t1.5 29.5q0 55 -25.5 98t-73.5 69q-14 8 -25 13t-22 8.5t-23 5t-29 1.5q-9 0 -14.5 -0.5t-10.5 -0.5t-10.5 -0.5t-14.5 -0.5t-14.5 -0.5t-10.5 -1.5t-10.5 -1.5t-14.5 -0.5t-14.5 1l-10.5 2
l-10.5 2t-14.5 1q-29 0 -45.5 -17.5t-16.5 -46.5q0 -8 0.5 -13t1.5 -9t1.5 -9t0.5 -13t-1 -13t-1.5 -9t-1.5 -9t-1 -13v-44q0 -8 0.5 -13t0.5 -9t0.5 -9t0.5 -13t-0.5 -13t-1 -9t-1 -9t-0.5 -13t0.5 -13t1 -9t1 -9t0.5 -13t0.5 -13t1.5 -9t1.5 -9t0.5 -13v-13t-0.5 -9
t-0.5 -9v-13t-0.5 -13t-1 -9t-1 -9t-0.5 -13v-13t-0.5 -9t-0.5 -9v-13t0.5 -13t1 -9t1 -9t0.5 -13t0.5 -13t0.5 -9t0.5 -9t0.5 -13t-0.5 -13t-0.5 -9t-0.5 -9t-0.5 -13q0 -33 14.5 -45.5t46.5 -12.5q8 0 13 -1t9 -2t9 -2t13 -1t13 0.5t9 1.5t9 1.5t13 0.5t13 -0.5t9 -1t9 -1
t13 -0.5h13t9 -0.5t9 -0.5h13q34 0 64.5 8.5t60.5 22.5q5 2 15.5 9.5l22.5 16.5l22 17t13 11q8 10 11 22t8 23t11 21t8 22q5 25 5 47q0 15 -3.5 34.5t-10.5 39.5t-15.5 38t-19.5 30q-8 10 -23 13t-26 11z" />
    <glyph glyph-name="C" unicode="C" horiz-adv-x="774" 
d="M556 163q-13 -8 -29.5 -15.5t-34.5 -13t-36 -9t-34 -3.5q-11 0 -22.5 2l-22.5 4q-21 3 -44 11t-41 19q-3 2 -13 11l-21 19.5t-20 20t-11 12.5q-6 9 -8.5 20.5t-6.5 22.5q-4 10 -9 20t-7 22q-2 11 0 22t2 23q0 45 11.5 88.5t46.5 75.5q9 9 24.5 18t32.5 17t34.5 13.5
t30.5 7.5q11 2 22.5 4.5t22.5 2.5t29 -3.5t38 -9.5t38.5 -13t28.5 -13q5 -3 11.5 -7.5t12.5 -9.5q7 -6 14 -11q9 -9 19 -15t22 -7q6 0 13.5 2.5t14.5 5.5q8 4 16 9q20 20 21 43q1 6 -2 13.5l-6 14.5q-4 8 -9 16q-8 9 -15.5 18.5t-17.5 17.5q-18 14 -41 27q-11 6 -23 8.5
t-23 7.5l-22 10t-23 8q-22 6 -47 8t-48 2q-22 0 -45 -1t-44 -6q-1 0 -13 -5l-27 -11l-28 -11.5t-15 -6.5q-94 -54 -135 -128.5t-41 -180.5q0 -35 5 -71.5t18 -68.5q4 -9 13.5 -26t21.5 -35.5l23.5 -35t19.5 -23.5q8 -8 19 -12t20 -11q34 -25 77 -41q11 -4 21 -10t21 -8
q12 -2 25.5 -4.5t26.5 -2.5q9 0 18.5 1.5t18.5 1.5h24t24 2q4 1 8 1h8h8h13t11 2q12 3 23 9.5t22 11.5l36 15t30 15.5t27 20.5t26 29q17 17 15 42q-1 12 -4 23.5t-12 20.5q-8 5 -16 9q-7 4 -14.5 7t-13.5 2q-12 -1 -22 -8t-19 -16l-39 -28z" />
    <glyph glyph-name="D" unicode="D" horiz-adv-x="735" 
d="M311 126q-14 0 -18 2.5t-18 2.5t-18 -2.5t-18 -2.5q-16 0 -28.5 12.5t-12.5 28.5q0 9 0.5 14.5t0.5 10t0.5 9.5t0.5 14v48v14.5t-0.5 10t-0.5 9.5v14v14.5t-0.5 10t-0.5 9.5v14t0.5 14.5t1 10t1 9.5t0.5 14t0.5 14.5t1 10t1 9.5t0.5 14t-0.5 14.5t-0.5 10t-0.5 9.5
t-0.5 14t-0.5 14.5t-0.5 10t-0.5 9.5t-0.5 14q0 16 11.5 26.5t27.5 10.5q14 0 18 0.5t18 0.5q40 0 78.5 -5.5t71 -20.5t58 -42t40.5 -71q6 -15 9 -24.5t5 -18.5t2.5 -19t0.5 -27q0 -43 -16 -88t-49 -75q-8 -8 -15.5 -17t-17.5 -15q-18 -11 -41 -19t-44 -11q-11 -2 -23 -6
t-23 -4zM522 640q-6 5 -22.5 12.5l-35.5 15.5t-37 14.5t-28 8.5q-43 9 -89 9h-12.5t-8.5 -0.5t-8.5 -0.5h-12.5t-12.5 0.5t-8.5 1t-8.5 1t-12.5 0.5t-12.5 0.5t-8.5 1t-8.5 1t-12.5 0.5t-12.5 -0.5t-8.5 -0.5t-8.5 -0.5t-12.5 -0.5q-12 0 -23 -5.5t-20 -14.5t-14.5 -20
t-5.5 -23v-13t0.5 -9t0.5 -9v-13t-0.5 -13t-0.5 -9t-0.5 -9t-0.5 -13v-44q0 -8 0.5 -13t0.5 -9t0.5 -9t0.5 -13v-88v-13t-0.5 -9t-0.5 -9v-13v-13t-0.5 -9t-0.5 -9v-13t1 -13t1.5 -9t1.5 -9t1 -13v-13t-0.5 -9t-0.5 -9v-13t-0.5 -13t-1 -9t-1 -9t-0.5 -13v-13t0.5 -9t0.5 -9
v-13t-0.5 -13t-0.5 -9t-0.5 -9t-0.5 -13q0 -29 18.5 -44t45.5 -15h42h12.5t8.5 0.5t8.5 0.5h12.5t12.5 -0.5t8.5 -1t8.5 -1t12.5 -0.5t12.5 -0.5t8.5 -1.5t8.5 -1.5t12.5 -0.5q11 0 22.5 4t22.5 6t22 2.5t22 2.5q21 4 36.5 8.5t29 10.5t26.5 14.5t29 20.5q48 35 83 84
t49 107q3 11 2.5 23t1.5 24q2 11 4.5 22.5t2.5 23.5t-2.5 24t-4.5 23q-2 12 -1.5 24t-2.5 23q-3 12 -7.5 23t-9.5 22t-7.5 23t-8.5 23q-19 33 -42.5 54.5t-54.5 44.5z" />
    <glyph glyph-name="E" unicode="E" horiz-adv-x="567" 
d="M188 4q9 0 14.5 -0.5t10 -1t9.5 -1t14 -0.5t14.5 -0.5t10 -0.5t9.5 -0.5t14 -0.5t14.5 1t10 2t9.5 2t14 1t14.5 -0.5t10 -1t9.5 -1t14 -0.5h14.5t10 0.5t9.5 0.5h14q31 0 43.5 16t17.5 44q0 32 -15.5 45.5t-46.5 13.5q-9 0 -14 0.5t-9.5 1.5t-10 1.5t-14.5 0.5h-14
t-9.5 0.5t-10 0.5h-14.5t-14 -0.5t-9.5 -1t-10 -1t-14.5 -0.5h-14t-9.5 0.5t-10 0.5h-14.5q-16 0 -26 11t-10 27q0 10 -0.5 16t-1 11t-1 11t-0.5 16t-0.5 16t-0.5 11t-0.5 11t-0.5 16q0 16 12.5 26.5t28.5 10.5q17 0 23 1t23 1t23 -0.5t23 -0.5t23 -1.5t23 -1.5q11 0 21.5 6
t19 15.5t13.5 21t5 21.5q-2 9 -4 17t-4.5 15t-7.5 11q-8 8 -19 13.5t-24 5.5q-17 0 -23 0.5t-23 0.5t-23 -1t-23 -1t-23 2t-23 2q-16 0 -28.5 9.5t-12.5 25.5q0 7 1 11t2 7t2 7t1 11q0 14 -0.5 18t-0.5 18q0 16 9.5 28t25.5 12q9 0 14.5 -1t10 -1.5t9.5 -1.5t14 -1h14.5
t10 -0.5t9.5 -0.5h14t14.5 1t10 2.5t9.5 2.5t14 1t14.5 -0.5t10 -1t9.5 -1t14 -0.5q25 0 43.5 18t18.5 43t-17.5 45t-43.5 20q-9 0 -14 -0.5t-9.5 -0.5t-10 -0.5t-14.5 -0.5h-14t-9.5 0.5t-10 0.5h-14.5h-96h-96q-29 0 -44.5 -18.5t-15.5 -45.5v-44q0 -8 -0.5 -13t-0.5 -9
t-0.5 -9t-0.5 -13t1 -13t1.5 -9t1.5 -9t1 -13t-0.5 -13t-0.5 -9t-0.5 -9t-0.5 -13v-13t0.5 -9t0.5 -9v-13v-44v-13t0.5 -9t0.5 -9v-13t-1 -13t-1.5 -9t-1.5 -9t-1 -13t0.5 -13t1.5 -9t1.5 -9t0.5 -13t-0.5 -13t-1.5 -9t-1.5 -9t-0.5 -13t-0.5 -13t-0.5 -9t-0.5 -9t-0.5 -13
t0.5 -13t1.5 -9t1.5 -9t0.5 -13t-0.5 -13t-1 -9t-1 -9t-0.5 -13q0 -12 5.5 -23.5t14.5 -20.5t20.5 -15t23.5 -6h48z" />
    <glyph glyph-name="F" unicode="F" horiz-adv-x="564" 
d="M140 5q60 0 60 59q0 8 -0.5 12.5t-0.5 8.5t-0.5 8.5t-0.5 12.5t0.5 12.5t1 8.5t1 8.5t0.5 12.5v12.5t-0.5 8.5t-0.5 8.5v12.5t0.5 12.5t0.5 8.5t0.5 8.5t0.5 12.5t0.5 12.5t0.5 8.5t0.5 8.5t0.5 12.5q0 16 10 27.5t26 11.5q17 0 23 -2t23 -2h46q17 0 23 0.5t23 0.5
q27 0 43.5 18t16.5 44q-2 9 -5 16l-6 14t-8 11q-8 8 -18 14.5t-23 6.5q-17 0 -23 -2t-23 -2t-23 2t-23 2h-46q-16 0 -27.5 10t-11.5 26q0 14 1.5 18t1.5 18q0 7 -1 11t-2 7t-2 7t-1 11q0 16 12.5 28t28.5 12h14.5t10 0.5t9.5 0.5h14t14.5 -0.5t10 -0.5t9.5 -0.5t14 -0.5
t14.5 0.5t10 1t9.5 1t14 0.5t14.5 -1t10 -2t9.5 -2t14 -1q31 0 44 17.5t15 45.5q0 11 -5 22t-13.5 20t-19 15t-21.5 6h-96q-9 0 -14 -0.5t-9.5 -0.5t-10 -0.5t-14.5 -0.5t-14 0.5t-9.5 1t-10 1t-14.5 0.5h-14t-9.5 0.5t-10 0.5h-14.5t-14 -1t-9.5 -2t-10 -2t-14.5 -1
q-58 0 -58 -58q0 -8 -0.5 -13t-0.5 -9t-0.5 -9t-0.5 -13t0.5 -13t0.5 -9t0.5 -9t0.5 -13t-1 -13t-2 -9t-2 -9t-1 -13t1 -13t1.5 -9t1.5 -9t1 -13t-0.5 -13t-1 -9t-1 -9t-0.5 -13t0.5 -13t0.5 -9t0.5 -9t0.5 -13t0.5 -13t0.5 -9t0.5 -9t0.5 -13v-44q0 -8 -1 -13t-1.5 -9
t-1.5 -9t-1 -13t0.5 -13t0.5 -9t0.5 -9t0.5 -13t-0.5 -13t-0.5 -9t-0.5 -9t-0.5 -13t1 -13t2 -9t2 -9t1 -13t-0.5 -13t-0.5 -9t-0.5 -9t-0.5 -13q0 -30 15 -43.5t41 -21.5z" />
    <glyph glyph-name="G" unicode="G" horiz-adv-x="778" 
d="M447 580q17 0 37.5 -5.5t41 -15t38.5 -21.5t31 -25l16 -10q6 -3 13.5 -6t13.5 -4q6 0 13.5 2.5t14.5 5.5q8 3 16 8q9 9 13.5 20.5t5.5 23.5q1 6 -1.5 13.5t-6.5 14.5q-3 8 -8 16q-27 30 -54 49t-65 34q-11 5 -23.5 6.5t-24.5 4.5q-11 3 -22.5 7t-23.5 6t-24 3.5t-24 1.5
q-22 0 -44.5 -2.5t-44.5 -7.5q-9 -2 -27 -9t-36.5 -16t-35 -18t-22.5 -14q-10 -7 -23.5 -20t-27 -28l-25.5 -29.5t-19 -26.5q-6 -11 -9 -22.5t-8 -22.5t-11 -22t-9 -23q-6 -22 -9 -47q-2 -11 0 -23t2 -24q0 -43 4.5 -77t16.5 -64t32.5 -58t52.5 -57l15.5 -16t16.5 -15
q21 -15 40.5 -25t39.5 -17t41.5 -11t45.5 -7l22.5 -4t22.5 -2q26 0 48 4.5t46 11.5q12 3 24.5 3.5t23.5 5.5t20 13t20 14t22.5 9.5t21.5 11.5t17.5 17.5t15.5 18.5l1 -1q8 8 11.5 19t3.5 23q0 9 0.5 14.5t0.5 10.5t0.5 10.5t0.5 14.5v14.5t0.5 10.5t0.5 10.5v14.5v14.5
t0.5 10.5t0.5 10.5v14.5q0 26 -18.5 43t-43.5 17q-17 0 -23 -1t-23 -1t-23 1t-23 1t-23 1t-23 1t-23 1t-23 1t-23 -1t-23 -1q-33 0 -45.5 -15.5t-14.5 -46.5q0 -30 14 -46t46 -16q8 0 13 0.5t9 1t9 1t13 0.5h44h13t9 -0.5t9 -0.5h13q16 0 28 -12t12 -28v-4q0 -7 -7 -15.5
t-17 -16.5t-20 -14t-16 -8q-16 -6 -33 -10.5t-34 -4.5q-7 0 -13.5 0.5t-14.5 0.5q-11 0 -22.5 0.5t-22.5 2.5q-14 2 -24.5 4.5t-19.5 6t-18 8.5l-21 12q-10 6 -20.5 11t-18.5 13q-8 7 -17.5 22.5t-18.5 33t-15.5 35t-8.5 29.5q-2 11 -2 22v23t3 22.5t5 21.5q2 12 1 23.5
t3 21.5q2 7 8 18t13.5 22.5l15 22t12.5 14.5q26 26 57 38t66 17q17 3 31.5 5t31.5 2z" />
    <glyph glyph-name="H" unicode="H" horiz-adv-x="715" 
d="M477 445h-48h-14t-9.5 -0.5t-10 -0.5h-14.5t-14 0.5t-9.5 1t-10 1t-14.5 0.5t-14 -1t-9.5 -2t-10 -2t-14.5 -1t-14 1t-9.5 2t-10 2t-14.5 1q-16 0 -25.5 9t-9.5 25v40q0 15 -1.5 20t-1.5 20t2 20t2 20t-2 20t-2 20q0 31 -14 46t-46 15q-23 0 -42.5 -19t-19.5 -42
q0 -8 0.5 -13t1 -9t1 -9t0.5 -13t-1 -13t-2 -9t-2 -9t-1 -13v-13t0.5 -9t0.5 -9v-13v-44q0 -8 0.5 -13t0.5 -9t0.5 -9t0.5 -13v-13t0.5 -9t0.5 -9v-13v-44v-13t0.5 -9t0.5 -9v-13t-0.5 -13t-1.5 -9t-1.5 -9t-0.5 -13v-44q0 -8 0.5 -13t1 -9t1 -9t0.5 -13t0.5 -13t0.5 -9
t0.5 -9t0.5 -13v-44q0 -13 2.5 -25.5t10.5 -20.5t20.5 -14t25.5 -6q29 0 44 19t15 46v13t0.5 9t0.5 9v13t0.5 13t1 9t1 9t0.5 13t-0.5 13t-0.5 9t-0.5 9t-0.5 13t0.5 13t1.5 9t1.5 9t0.5 13v44q0 16 9.5 27.5t25.5 11.5q9 0 14.5 -0.5t10 -0.5t9.5 -0.5t14 -0.5h48h14.5
t10 0.5t9.5 0.5h14t14.5 -0.5t10 -0.5t9.5 -0.5t14 -0.5t14.5 0.5t10 1.5t9.5 1.5t14 0.5q16 0 27 -12t11 -28q0 -8 -0.5 -13t-0.5 -9t-0.5 -9t-0.5 -13v-13t-0.5 -9t-0.5 -9v-13t1 -13t2 -9t2 -9t1 -13v-13t0.5 -9t0.5 -9v-13t-0.5 -13t-0.5 -9t-0.5 -9t-0.5 -13
q0 -25 16.5 -43.5t42.5 -18.5q28 0 43.5 17.5t15.5 44.5v88q0 8 0.5 13t1 9t1 9t0.5 13t-0.5 13t-1 9t-1 9t-0.5 13t1 13t1.5 9t1.5 9t1 13t-0.5 13t-1 9t-1 9t-0.5 13v13t0.5 9t0.5 9v13t0.5 13t0.5 9t0.5 9t0.5 13t-1 13t-2 9t-2 9t-1 13t1 13t1.5 9t1.5 9t1 13v44
q0 8 -0.5 13t-0.5 9t-0.5 9t-0.5 13t-0.5 13t-1 9t-1 9t-0.5 13q0 29 -15 44.5t-44 15.5q-10 0 -21 -5.5t-20 -14t-15 -19t-6 -21.5q0 -15 -0.5 -20t-0.5 -20v-40q0 -15 2.5 -20t2.5 -20t-2 -20t-2 -20q0 -16 -11 -25.5t-27 -9.5z" />
    <glyph glyph-name="I" unicode="I" horiz-adv-x="279" 
d="M140 0q29 0 44.5 18.5t15.5 45.5v44q0 8 0.5 13t1 9t1 9t0.5 13t-0.5 13t-1 9t-1 9t-0.5 13v44v13t0.5 9t0.5 9v13t0.5 13t1.5 9t1.5 9t0.5 13t-0.5 13t-1 9t-1 9t-0.5 13t0.5 13t1 9t1 9t0.5 13t-0.5 13t-0.5 9t-0.5 9t-0.5 13t0.5 13t0.5 9t0.5 9t0.5 13t-0.5 13t-1 9
t-1 9t-0.5 13v13t-0.5 9t-0.5 9v13v44q0 12 -5 22.5t-13.5 18.5t-19.5 13t-22 5q-23 0 -42.5 -18.5t-19.5 -41.5v-88q0 -8 -0.5 -13t-0.5 -9t-0.5 -9t-0.5 -13t1 -13t1.5 -9t1.5 -9t1 -13t-1 -13t-2 -9t-2 -9t-1 -13t0.5 -13t0.5 -9t0.5 -9t0.5 -13t0.5 -13t1.5 -9t1.5 -9
t0.5 -13t-1 -13t-2 -9t-2 -9t-1 -13t1 -13t2.5 -9t2.5 -9t1 -13t-1 -13t-2 -9t-2 -9t-1 -13t0.5 -13t1.5 -9t1.5 -9t0.5 -13t0.5 -13t0.5 -9t0.5 -9t0.5 -13v-44q0 -10 5 -21.5t13 -20.5t18 -15t21 -6z" />
    <glyph glyph-name="J" unicode="J" horiz-adv-x="396" 
d="M197 52q0 -31 -18 -44.5t-45 -18.5q-30 0 -42 -14.5t-17 -43.5q0 -32 15 -43.5t44 -14.5q8 0 14.5 -0.5t14.5 -0.5q26 0 54 15t47 34q5 5 12.5 16t14 24l12 25t7.5 19q3 11 3.5 23t0.5 24q0 17 0.5 23t0.5 23t0.5 23t0.5 23t-1.5 23t-1.5 23t2.5 23t2.5 23t-2 23t-2 23
t0.5 23t0.5 23v46q0 17 1.5 23t1.5 23v46q0 17 -2 23t-2 23t1 23t1 23v92q0 26 -17.5 45t-44.5 19q-26 0 -42 -20.5t-16 -44.5q0 -17 -2.5 -23t-2.5 -23t2 -23t2 -23t-3 -23t-3 -23t3.5 -23t3.5 -23t-3.5 -23t-3.5 -23t1.5 -23t1.5 -23v-92q0 -17 -0.5 -23t-0.5 -23t2 -23
t2 -23t-3 -23t-3 -23t3 -23t4 -23t1 -22.5v-22.5z" />
    <glyph glyph-name="K" unicode="K" horiz-adv-x="677" 
d="M448 688q-6 -6 -9.5 -10t-5.5 -8t-5.5 -8t-9.5 -10t-10.5 -9t-8 -5t-8 -5t-10.5 -9t-9.5 -10t-5.5 -8t-5.5 -8t-9.5 -10t-10 -9t-7.5 -6t-7.5 -6t-10 -9t-10 -9l-8 -6l-8 -6t-10 -9t-9.5 -10t-5.5 -8t-5.5 -8t-9.5 -10t-10 -9.5t-7.5 -6t-7.5 -6t-10 -9.5q-4 -2 -6 -2
q-5 0 -9.5 2.5t-4.5 7.5v12.5t0.5 8.5t0.5 8.5v12.5v12.5t0.5 8.5t0.5 8.5v12.5v42q0 8 0.5 12.5t1.5 8.5t1.5 8.5t0.5 12.5q0 26 -21 40t-43 19q-11 0 -22 -5t-19.5 -13t-13.5 -18.5t-5 -22.5v-13t-0.5 -9t-0.5 -9v-13t0.5 -13t0.5 -9t0.5 -9t0.5 -13t-0.5 -13t-0.5 -9
t-0.5 -9t-0.5 -13v-13t-0.5 -9t-0.5 -9v-13v-44v-13t-0.5 -9t-0.5 -9v-13t1 -13t1.5 -9t1.5 -9t1 -13t-0.5 -13t-1.5 -9t-1.5 -9t-0.5 -13t1 -13t1.5 -9t1.5 -9t1 -13v-44v-13t-0.5 -9t-0.5 -9v-13t-0.5 -13t-1.5 -9t-1.5 -9t-0.5 -13q0 -21 1 -37.5t7 -29t19 -22t37 -17.5
q29 0 43.5 17.5t14.5 44.5q0 8 0.5 12.5t0.5 8.5t0.5 8.5t0.5 12.5t0.5 12.5t1 8.5t1 8.5t0.5 12.5t-0.5 12.5t-1 8.5t-1 8.5t-0.5 12.5v12.5t0.5 8.5t0.5 8.5v12.5v42q0 4 3 7q1 1 3 1q2 1 6 1q3 0 4 -1q12 -11 14.5 -17t14.5 -17t17.5 -13.5t17.5 -13.5l32 -31
q12 -11 16.5 -14.5t16.5 -14.5l32 -30q12 -11 15 -16.5t15 -16.5t17.5 -13.5t17.5 -13.5t14.5 -16.5t14.5 -16.5t18 -13t18 -13q16 -16 40 -16q10 1 19 2q8 2 15.5 4.5t11.5 6.5q8 9 12.5 21.5t4.5 24.5q0 11 -4.5 23t-14.5 21q-6 6 -10.5 9t-8.5 5t-8.5 5t-10.5 9t-9.5 10
t-6 7.5t-6 7.5t-9.5 10t-9.5 10t-6.5 7t-6.5 7t-9.5 10t-10 9.5t-7.5 6t-7.5 6t-10 9.5l-9.5 9.5t-6.5 7t-7 7t-10 9.5t-10 9.5t-7.5 6t-7.5 6t-10 9.5t-10 9t-7.5 6t-7.5 6t-10 9t-10 9.5t-7.5 6t-7.5 6t-10 9.5q-3 2 -1 5.5t5 5.5q12 11 15 16t15 16t16.5 14.5t16.5 14.5
l32 30q12 11 15.5 15.5t15.5 15.5t17 14t17 14t14.5 16.5t14.5 16.5t17 13.5t17 13.5q10 9 14 21.5t4 23.5q0 14 -8 28.5t-20.5 26.5t-27 20t-27.5 8q-17 0 -31 -14z" />
    <glyph glyph-name="L" unicode="L" horiz-adv-x="575" 
d="M78 640v-88v-44q0 -8 0.5 -13t0.5 -9t0.5 -9t0.5 -13v-13t0.5 -9t0.5 -9v-13t-0.5 -13t-1 -9t-1 -9t-0.5 -13t-0.5 -13t-0.5 -9t-0.5 -9t-0.5 -13v-13t-0.5 -9t-0.5 -9v-13v-44q0 -8 0.5 -13t0.5 -9t0.5 -9t0.5 -13v-13t-0.5 -9t-0.5 -9v-13t-0.5 -13t-0.5 -9t-0.5 -9
t-0.5 -13v-44q0 -10 6 -21.5t15.5 -21t21 -16t21.5 -6.5q8 0 12.5 0.5t8.5 1t8.5 1t12.5 0.5t12.5 -0.5t8.5 -0.5t8.5 -0.5t12.5 -0.5t12.5 1t8.5 1.5t8.5 1.5t12.5 1h12.5t8.5 -0.5t8.5 -0.5h12.5t12.5 -0.5t8.5 -1.5t8.5 -1.5t12.5 -0.5h12.5t8.5 0.5t8.5 0.5h12.5
t12.5 0.5t8.5 0.5t8.5 0.5t12.5 0.5q32 0 44 15t16 45q0 25 -18.5 41.5t-42.5 16.5h-14.5t-10.5 0.5t-10.5 0.5h-14.5t-14.5 0.5l-10.5 1l-10.5 1t-14.5 0.5t-14.5 0.5t-10.5 0.5t-10.5 0.5t-14.5 0.5t-14.5 -0.5l-10.5 -1l-10.5 -1t-14.5 -0.5q-16 0 -26.5 11t-10.5 27
q0 8 -0.5 13t-1 9t-1 9t-0.5 13t0.5 13t0.5 9t0.5 9t0.5 13t-0.5 13t-0.5 9t-0.5 9t-0.5 13t0.5 13t0.5 9t0.5 9t0.5 13v13t-0.5 9t-0.5 9v13t-0.5 13t-0.5 9t-0.5 9t-0.5 13v44q0 8 0.5 13t0.5 9t0.5 9t0.5 13v88q0 8 -0.5 13t-1 9t-1 9t-0.5 13q0 18 -8.5 35t-29.5 17
q-31 0 -52 -14t-21 -48z" />
    <glyph glyph-name="M" unicode="M" horiz-adv-x="818" 
d="M407 452q-11 12 -17.5 17.5t-17.5 17.5t-17 14t-17 14t-13 18t-13 18t-17 14.5t-17 14.5t-14 17t-14 17t-14 17t-14 17l-30 32q-9 9 -22 11.5t-26 2.5q-10 -1 -19 -2q-8 -2 -15 -4t-12 -7q-18 -18 -18 -46v-13t-0.5 -9t-0.5 -9v-13t1 -13t1.5 -9t1.5 -9t1 -13v-13t0.5 -9
t0.5 -9v-13t-0.5 -13t-1.5 -9t-1.5 -9t-0.5 -13v-44q0 -8 0.5 -13t0.5 -9t0.5 -9t0.5 -13t0.5 -13t0.5 -9t0.5 -9t0.5 -13t-1 -13t-2 -9t-2 -9t-1 -13t1 -13t1.5 -9t1.5 -9t1 -13t-0.5 -13t-1 -9t-1 -9t-0.5 -13t0.5 -13t1 -9t1 -9t0.5 -13t-0.5 -13t-1.5 -9t-1.5 -9
t-0.5 -13v-13t-0.5 -9t-0.5 -9v-13q0 -12 5.5 -23t14.5 -19.5t20.5 -14t23.5 -5.5q26 0 43.5 18t17.5 44q0 8 0.5 13t1 9t1 9t0.5 13t-1 13t-1.5 9t-1.5 9t-1 13v13t0.5 9t0.5 9v13t-0.5 13t-0.5 9t-0.5 9t-0.5 13v44v13t0.5 9t0.5 9v13t0.5 13t0.5 9t0.5 9t0.5 13v13t0.5 9
t0.5 9v13t-0.5 13t-1.5 9t-1.5 9t-0.5 13q0 6 4.5 9.5t9.5 3.5q6 0 11 -5l96 -102q6 -6 10 -9.5t7 -6.5t7 -6.5t10 -9.5l32 -34q12 -14 31 -14q14 0 25 11q6 6 9 10l6 8l6 8t9 10t9 10l6 8l6 8t9 10t10 9.5t7.5 6t7.5 6t10 9.5t9 10l6 8l6 8t9 10l8 8t13 12l13 11t9 5
q5 0 8.5 -3.5t3.5 -9.5q0 -8 1 -13t1.5 -9t1.5 -9t1 -13v-44v-13t-0.5 -9t-0.5 -9v-13v-44q0 -8 -1 -13t-2 -9t-2 -9t-1 -13v-13t0.5 -9t0.5 -9v-13t0.5 -13t0.5 -9t0.5 -9t0.5 -13v-13t-0.5 -9t-0.5 -9v-13v-44q0 -13 6 -23t15 -17.5t20 -13t21 -9.5q29 0 46 17t17 46v44
q0 8 -0.5 13t-0.5 9t-0.5 9t-0.5 13t-0.5 13t-0.5 9t-0.5 9t-0.5 13v13t0.5 9t0.5 9v13t1 13t1.5 9t1.5 9t1 13t-1 13t-2 9t-2 9t-1 13t0.5 13t1.5 9t1.5 9t0.5 13t-0.5 13t-0.5 9t-0.5 9t-0.5 13v44q0 8 -0.5 13t-0.5 9t-0.5 9t-0.5 13v13t-0.5 9t-0.5 9v13t0.5 13t1 9t1 9
t0.5 13v13t0.5 9t0.5 9v13q0 26 -18 43.5t-44 17.5q-10 -1 -19 -3q-8 -2 -16 -5t-13 -8q-11 -12 -14 -17t-14 -17l-30 -32q-11 -12 -14 -17t-14 -17t-15.5 -15.5t-15.5 -15.5t-14.5 -16.5t-14.5 -16.5t-17.5 -13.5t-17.5 -13.5t-13.5 -17.5t-13.5 -17.5q-5 -5 -13 -5
q-6 0 -10 4z" />
    <glyph glyph-name="N" unicode="N" horiz-adv-x="766" 
d="M481 329q-6 7 -9 11l-5.5 7.5l-5.5 7.5t-9 11l-30 36l-9 10.5l-6 7t-6.5 7t-9.5 10.5t-9 11t-5 7.5t-5 7.5t-9 11t-9 11t-5 8t-5 8t-9 11t-9.5 10.5l-6.5 6.5l-6.5 6.5t-9.5 10.5l-9 10.5l-6 7t-6.5 7t-9.5 10.5t-9.5 10.5t-6.5 7t-6.5 7t-9.5 10.5t-9 11l-5.5 7.5
l-5.5 7.5t-9 11t-8.5 11.5t-4.5 8.5t-4.5 8.5t-8.5 11.5q-9 11 -22.5 13.5t-27.5 2.5l-18 -2l-14 -4t-12 -7q-18 -18 -18 -44v-13t-0.5 -9t-0.5 -9v-13t1 -13t1.5 -9t1.5 -9t1 -13v-44q0 -8 -1 -13t-1.5 -9t-1.5 -9t-1 -13t0.5 -13t1 -9t1 -9t0.5 -13t-1 -13t-1.5 -9
t-1.5 -9t-1 -13t1 -13t2 -9t2 -9t1 -13t-0.5 -13t-0.5 -9t-0.5 -9t-0.5 -13t-0.5 -13t-1.5 -9t-1.5 -9t-0.5 -13v-44v-13t0.5 -9t0.5 -9v-13v-88q0 -26 20 -42.5t44 -16.5q11 0 22.5 5t20.5 13.5t15 19.5t6 22q0 17 -2.5 23t-2.5 23v92q0 17 1 23t1 23t-1.5 23t-1.5 23
t3.5 23t3.5 23v46q0 17 -3 23t-3 23q0 6 6 10.5t12 4.5q7 0 10 -4q6 -7 9 -11t5 -8t5 -8t9 -11t8.5 -11.5t5 -8t5 -8t8.5 -11.5t9.5 -10.5l6.5 -6.5l6.5 -6.5t9.5 -10.5t9 -11l5.5 -7.5l5.5 -7.5t9 -11t9.5 -10.5t6.5 -7l6 -7l9 -10.5t9.5 -10.5t6.5 -7l6 -7l9 -10.5t9 -11
l5.5 -7.5l5.5 -7.5t9 -11t9.5 -10.5t6.5 -7l6 -7l9 -10.5t9.5 -10.5t7 -6t7 -6t9.5 -10.5l30 -36q6 -7 8.5 -11.5t4 -8.5t4 -8.5t8.5 -11.5t9.5 -10.5l6.5 -6.5l6.5 -6.5t9.5 -10.5q8 -10 19.5 -16.5t24.5 -6.5q11 0 23 6t21.5 15t16 20.5t6.5 22.5v88v13t-0.5 9t-0.5 9v13
t-0.5 13t-0.5 9t-0.5 9t-0.5 13v88q0 8 0.5 13t1 9t1 9t0.5 13t-0.5 13t-0.5 9t-0.5 9t-0.5 13t-0.5 13t-1.5 9t-1.5 9t-0.5 13t1 13t2 9t2 9t1 13t-0.5 13t-1.5 9t-1.5 9t-0.5 13t0.5 13t0.5 9t0.5 9t0.5 13t-0.5 13t-0.5 9t-0.5 9t-0.5 13q0 31 -17 43.5t-44 18.5
q-32 0 -46 -15t-14 -46v-46q0 -17 -2.5 -23t-2.5 -23t0.5 -23t0.5 -23t2.5 -23t2.5 -23t-0.5 -23t-0.5 -23t-1.5 -23t-1.5 -23t-1 -23t-1 -23t0.5 -23t0.5 -23q0 -13 -11 -13q-3 0 -13 9t-21.5 21t-21.5 23.5t-14 15.5z" />
    <glyph glyph-name="O" unicode="O" 
d="M428 125q-21 0 -46 5q-3 0 -15.5 4.5l-26.5 10t-26.5 11t-15.5 6.5l-22.5 14.5t-15 12t-12 15l-14.5 22.5q-11 15 -21 40t-12 43q-2 11 -1 22t1 23q0 65 22 110.5t77 79.5q16 10 40 22t42 14q11 2 23 3t23 1t22.5 -4.5t22.5 -6.5t22 -2.5t22 -4.5q6 -2 17 -8t22.5 -13.5
l22 -14.5t14.5 -12q3 -3 11 -13.5l16.5 -22.5t15.5 -23t8 -15q2 -6 5 -18.5t5 -26t3.5 -26t1.5 -18.5q0 -14 -2.5 -31.5t-7 -35.5t-11 -34.5t-14.5 -28.5q-2 -3 -11 -13t-19.5 -20.5t-20.5 -19.5t-13 -11q-20 -12 -41.5 -19t-44.5 -10l-22.5 -4t-22.5 -2zM671 609
q-5 5 -14.5 13.5l-20 17.5l-20 16.5t-14.5 10.5q-10 5 -20.5 8t-21.5 7t-22 6l-22 4t-21.5 5.5t-21.5 5.5t-22.5 2h-22.5t-22.5 -1.5t-22.5 -3.5t-22 -2t-22 -2q-53 -11 -104.5 -42t-86.5 -73q-10 -13 -19 -29.5t-16 -34.5t-12.5 -35.5t-9.5 -33.5q-3 -11 -8 -22.5t-7 -23.5
q-2 -11 -0.5 -23t1.5 -24t-1.5 -24t0.5 -23q1 -8 4 -21t6.5 -26.5l7 -26t6.5 -20.5q1 -2 8 -14t16 -26l17 -26.5l10 -15.5q29 -35 66 -62t80 -42q11 -4 21 -9t21 -7q4 -1 8 -1h9h14q10 0 14 -1q11 -2 22.5 -3t22.5 -1q35 0 67.5 3.5t65.5 15.5l14 7l26 13.5l26 13.5t13 7
q5 4 18.5 18l28.5 31l28 33t17 24q15 26 24 46.5t14.5 41t7.5 42.5t2 52q0 37 -7.5 71.5t-21.5 68.5q-5 11 -8 22.5t-9 22.5l-12 21t-14 20q-8 9 -18.5 15t-19.5 14z" />
    <glyph glyph-name="P" unicode="P" horiz-adv-x="593" 
d="M200 543q0 15 7.5 23t18.5 11.5t23.5 4.5t23.5 1q13 0 17 -1t17 -1h14q35 0 55.5 -24.5t20.5 -57.5q0 -16 -1.5 -27t-6.5 -19t-14 -14t-24 -13q-14 -7 -26.5 -11.5t-17.5 -4.5h-68q-16 0 -26.5 12.5t-10.5 28.5q0 17 -1.5 23t-1.5 23t0.5 23t0.5 23zM385 691
q-9 3 -18.5 6.5t-19.5 5.5q-3 1 -10 1q-8 0 -15.5 -1t-15.5 -1t-12.5 0.5t-8.5 0.5t-8.5 0.5t-12.5 0.5h-12.5t-8.5 -0.5t-8.5 -0.5h-12.5t-12.5 -0.5t-8.5 -1t-8.5 -1t-12.5 -0.5t-12.5 1t-8.5 1.5t-8.5 1.5t-12.5 1q-11 0 -21.5 -6.5t-18.5 -16t-13 -21t-5 -21.5v-44
q0 -8 -1 -13t-1.5 -9t-1.5 -9t-1 -13t0.5 -13t1 -9t1 -9t0.5 -13t-0.5 -13t-0.5 -9t-0.5 -9t-0.5 -13t0.5 -13t0.5 -9t0.5 -9t0.5 -13t0.5 -13t0.5 -9t0.5 -9t0.5 -13t-0.5 -13t-0.5 -9t-0.5 -9t-0.5 -13t-0.5 -13t-1.5 -9t-1.5 -9t-0.5 -13t0.5 -13t0.5 -9t0.5 -9t0.5 -13
t-0.5 -13t-0.5 -9t-0.5 -9t-0.5 -13t0.5 -13t1.5 -9t1.5 -9t0.5 -13t-0.5 -13t-1 -9t-1 -9t-0.5 -13t0.5 -13t1 -9t1 -9t0.5 -13q0 -25 17.5 -45t43.5 -20q11 0 21.5 6t19 15.5t14 21t5.5 21.5v46q0 17 1.5 23t1.5 23v92q0 16 10.5 27.5t26.5 11.5q13 0 17 -2t17 -2t17 3
t17 3q8 0 16.5 -1.5t16.5 -1.5q2 0 4 0.5t4 0.5q51 8 94 42t64 81q8 20 10.5 41.5t2.5 42.5q0 23 -1.5 44t-9.5 42q-5 10 -12 18.5t-13 17.5q-19 29 -43.5 44.5t-54.5 27.5z" />
    <glyph glyph-name="Q" unicode="Q" 
d="M415 133q-2 -3 -1 -7.5t4 -6.5l1 -1q-11 0 -22 4t-22 6t-22 2.5t-22 4.5t-20.5 9.5l-19.5 11.5q-4 3 -13 11.5l-19 18.5t-18 19.5t-11 14.5t-7.5 16.5l-9.5 24.5t-8.5 25t-4.5 17q-3 21 -3 45q0 12 -1 23.5t1 22.5q3 23 11 44q3 10 13.5 24.5t23.5 29.5t27 28.5t24 19.5
q26 15 62 25.5t67 10.5q11 0 22.5 -3.5t22.5 -5.5t22.5 -2t22.5 -4t19.5 -11.5t18.5 -13.5t21 -10.5t19 -12.5q25 -23 38.5 -55t17.5 -65q2 -11 5 -22t3 -23q0 -25 -3 -48q-2 -12 -5.5 -23.5t-7.5 -22.5q-2 -5 -10 -18.5t-18.5 -27.5t-20.5 -25t-16 -11q-3 0 -7 2l-40 23
q-9 5 -18.5 9t-19.5 4q-15 0 -26.5 -10.5t-19.5 -22.5q-6 -8 -9 -13t-6 -9l-6.5 -8.5t-8.5 -13.5zM778 352q0 25 -3 47q-2 12 -6.5 23.5t-7.5 22.5q-3 12 -3.5 24.5t-5.5 23.5q-2 6 -12.5 23l-23.5 36.5l-25.5 37t-19.5 23.5q-55 51 -115 69t-132 18q-9 0 -18.5 1.5
t-18.5 1.5h-8q-32 -4 -58.5 -11t-50 -18.5t-45.5 -27.5t-45 -37q-9 -8 -18.5 -15.5t-17.5 -16.5q-8 -10 -12 -21t-10 -22t-14 -20.5t-13 -20.5t-5.5 -23.5t-3.5 -24.5q-7 -26 -10 -46.5t-3 -46.5q0 -12 -0.5 -24t1.5 -23q2 -12 7 -30.5t12 -37.5t14.5 -37t14.5 -30
q6 -11 10 -22t12 -21q21 -26 50 -47t58 -37q10 -5 19 -12t20 -11t29 -7.5t37.5 -5.5t37.5 -3.5t30 -1.5q11 0 21 -1.5t21 -1.5q2 0 5 0.5t5 0.5q13 2 25 7t24 8q11 3 22 5.5t22 6.5q2 1 6 1t6 -1q11 -3 15 -6t16 -10q7 -4 10.5 -7t7 -5t7 -5t10.5 -7l35 -19.5t36 -11.5
t28.5 9t21.5 22q2 9 4 17t2.5 16t-1.5 13q-3 11 -9 22t-17 18t-16 7t-16 7q-8 5 -12.5 6t-9.5 5q-4 3 -4 7.5t3 7.5l12 12t11 14q2 3 8 14.5l13 24.5l13 24.5t7 14.5q4 11 4 22.5t2 22.5t3.5 21.5t3.5 21.5q1 11 4.5 21.5t3.5 21.5v4z" />
    <glyph glyph-name="R" unicode="R" horiz-adv-x="599" 
d="M193 539q0 14 7.5 22t18.5 11.5t24 4t23 0.5q13 0 17 1.5t17 1.5q8 0 20.5 -4t25 -10t23 -13t14.5 -14q8 -15 8 -46q0 -18 -1.5 -28.5t-6 -18t-13.5 -13t-25 -12.5q-14 -7 -26.5 -11.5t-17.5 -4.5q-13 0 -17 2.5t-17 2.5t-17 -1.5t-17 -1.5q-16 0 -26.5 11.5t-10.5 27.5
v23t-1 23q0 9 -0.5 14t-1 9.5t-0.5 9.5v14zM450 343q8 8 17 14t15 15q7 10 13.5 26.5t12 34.5t8.5 35t3 27q0 3 -2 15.5t-5 26.5t-6 26.5t-5 15.5q-1 3 -8 14.5l-15 23.5l-15 22.5t-9 12.5q-8 7 -18 10.5t-19 8.5q-8 5 -16 12t-18 11q-4 2 -15 3.5t-23.5 3.5t-24 3t-16.5 1
h-12.5t-8.5 -0.5t-8.5 -0.5h-12.5t-12.5 0.5t-8.5 0.5t-8.5 0.5t-12.5 0.5h-84q-23 0 -40.5 -20t-17.5 -42q0 -8 -0.5 -13t-1 -9t-1 -9t-0.5 -13v-44v-13t-0.5 -9t-0.5 -9v-13t0.5 -13t1.5 -9t1.5 -9t0.5 -13v-44q0 -8 -0.5 -13t-1 -9t-1 -9t-0.5 -13t0.5 -13t0.5 -9t0.5 -9
t0.5 -13v-13t-0.5 -9t-0.5 -9v-13t-0.5 -13t-1 -9t-1 -9t-0.5 -13t0.5 -13t1.5 -9t1.5 -9t0.5 -13v-88q0 -8 -0.5 -13t-1 -9t-1 -9t-0.5 -13q0 -23 19 -42.5t42 -19.5v-1q25 0 41.5 20t16.5 43v48q0 9 1 14.5t2.5 10t2.5 9.5t1 14t-1 14.5t-2 10t-2 9.5t-1 14t1 14.5t1.5 10
t1.5 9.5t1 14q0 14 8 24t22 10v1q11 0 19.5 -7t14.5 -16l24 -40q5 -7 7 -12t4.5 -8.5t5 -8t6.5 -12.5q5 -7 7 -12t4.5 -8.5t5 -8t6.5 -12.5q5 -7 7.5 -11.5t5 -8l5.5 -7.5t7 -12q5 -7 7.5 -11.5t5.5 -8t6 -7.5t7 -12l15 -23.5t15 -19t19 -14.5t27 -10q22 0 39.5 13t20.5 36
t-8 41q-9 14 -11.5 19.5t-11.5 19.5t-12.5 18.5t-12.5 18.5t-13 18.5t-13 18.5t-10 20t-10 20t-14 17.5t-14 17.5q-3 5 0 11t8 8q14 6 25 15.5l22 19.5z" />
    <glyph glyph-name="S" unicode="S" horiz-adv-x="663" 
d="M449 382q-12 5 -23.5 10.5t-24.5 8.5t-25.5 5t-25.5 5l-43 11q-13 3 -24 5t-20 5q-14 5 -23 10.5t-15 10.5q-4 4 -7.5 10.5t-6 13.5t-3.5 12l-1 5q0 15 9 29.5t23 26t30 18.5t30 7q8 0 15 -1t15 -1h20q14 0 23 -1.5t16.5 -5t14.5 -10l17 -16.5q9 -9 21.5 -13t24.5 -4
q6 0 13.5 3t13.5 8q7 4 15 10q9 9 15 19.5t6 22.5q0 6 -3 13.5t-7 13.5l-11 15l-17.5 18t-18.5 16q-29 19 -68.5 28t-74.5 9q-12 0 -23.5 -3t-22.5 -5q-13 -2 -30 -7t-34.5 -12t-33 -15.5t-26.5 -17.5q-14 -12 -27 -29t-23 -37.5t-16 -41.5t-6 -40q0 -13 4.5 -31t12 -36
t17 -34.5t19.5 -26.5q29 -26 63 -39.5t71 -21.5q13 -3 25 -8t25 -8l43 -11q14 -3 31 -8t32 -13.5t25.5 -21t10.5 -30.5q0 -5 -3 -14t-7.5 -18.5t-9.5 -17t-9 -10.5q-7 -4 -21 -8t-29.5 -7t-30.5 -4.5t-24 -1.5q-5 0 -23 1.5t-38 3.5t-37 4.5t-21 4.5q-14 6 -20.5 13.5
l-10.5 12.5l-15 9q-6 3 -13.5 6t-13.5 3q-14 0 -23 -2.5t-20 -11.5l-1 1q-10 -8 -16.5 -18.5t-7.5 -22.5t5 -22.5t14 -20.5q8 -8 14.5 -16.5t15.5 -15.5q32 -26 77.5 -35t85.5 -12q11 -1 21.5 -3t21.5 -2q12 0 23 1.5t22 3.5q12 2 23.5 2t22.5 2q8 2 19.5 6.5t23.5 10
t23 11.5t18 11q4 3 13.5 12.5l19.5 20t18.5 20.5t10.5 14q10 21 15 44q3 11 3.5 23t0.5 23q0 65 -37.5 111t-96.5 68z" />
    <glyph glyph-name="T" unicode="T" horiz-adv-x="709" 
d="M137 576q15 0 20 3t20 3t20 -2t20 -2t20 0.5t20 0.5q16 0 25.5 -11t9.5 -27q0 -8 1 -13t2 -9t2 -9t1 -13t-0.5 -13t-1.5 -9t-1.5 -9t-0.5 -13t0.5 -13t1 -9t1 -9t0.5 -13v-13t-0.5 -9t-0.5 -9v-13t0.5 -13t0.5 -9t0.5 -9t0.5 -13t-1 -13t-1.5 -9t-1.5 -9t-1 -13t0.5 -13
t1.5 -9t1.5 -9t0.5 -13t-0.5 -13t-0.5 -9t-0.5 -9t-0.5 -13t-0.5 -13t-0.5 -9t-0.5 -9t-0.5 -13t0.5 -13t0.5 -9t0.5 -9t0.5 -13t0.5 -13t1.5 -9t1.5 -9t0.5 -13q0 -58 58 -58q9 1 18 3q8 2 15 4.5t11 6.5q8 8 11 19.5t3 24.5q0 8 1 13t1.5 9t1.5 9t1 13v88q0 8 -1 13
t-1.5 9t-1.5 9t-1 13t1 13t1.5 9t1.5 9t1 13v13t-0.5 9t-0.5 9v13v88q0 8 0.5 13t1 9t1 9t0.5 13v13t-0.5 9t-0.5 9v13v44q0 16 10 28.5t26 12.5q15 0 20 -2.5t20 -2.5t20 -1t20 -1t20 3t20 3q29 0 44.5 14.5t15.5 43.5q-2 9 -5 17q-2 7 -5 14t-8 11q-15 15 -42 15
q-8 0 -13 1t-9 2t-9 2t-13 1t-13 -0.5t-9 -0.5t-9 -0.5t-13 -0.5t-13 -0.5t-9 -1.5t-9 -1.5t-13 -0.5t-13 0.5t-9 1t-9 1t-13 0.5t-13 -0.5t-9 -1t-9 -1t-13 -0.5t-13 1t-9 1.5t-9 1.5t-13 1t-13 -0.5t-9 -1.5t-9 -1.5t-13 -0.5t-13 0.5t-9 1.5t-9 1.5t-13 0.5h-13t-9 0.5
t-9 0.5h-13t-13 -0.5t-9 -0.5t-9 -0.5t-13 -0.5q-25 0 -43.5 -18t-18.5 -43q3 -9 6 -17q3 -7 6.5 -13.5t7.5 -11.5q8 -8 18.5 -14.5t23.5 -6.5z" />
    <glyph glyph-name="U" unicode="U" horiz-adv-x="705" 
d="M507 259q0 -6 -3 -17t-7.5 -23t-9 -22.5t-8.5 -15.5q-3 -4 -11.5 -12t-19 -16.5t-20 -14.5t-14.5 -8q-19 -6 -42 -6q-24 0 -44 1.5t-36.5 7.5t-31 17.5t-29.5 31.5q-14 19 -19 36.5t-5 40.5q0 9 -0.5 14.5t-1.5 10t-1.5 9.5t-0.5 14t0.5 14.5t1.5 10t1.5 9.5t0.5 14
t-0.5 14.5t-0.5 10t-0.5 9.5t-0.5 14t-0.5 14.5t-0.5 10t-0.5 9.5t-0.5 14t0.5 14.5t1.5 10t1.5 9.5t0.5 14v14.5t-0.5 10t-0.5 9.5v14v14.5t-0.5 10t-0.5 9.5v14v48q0 27 -18 42.5t-44 15.5q-9 -2 -16 -4t-13.5 -5t-11.5 -8q-17 -17 -17 -41q0 -9 -1 -14t-1.5 -9.5
t-1.5 -10t-1 -14.5t0.5 -14t0.5 -9.5t0.5 -10t0.5 -14.5v-14t0.5 -9.5t0.5 -10v-14.5t-1 -14t-1.5 -9.5t-1.5 -10t-1 -14.5v-14t0.5 -9.5t0.5 -10v-14.5t0.5 -14t0.5 -9.5t0.5 -10t0.5 -14.5t-0.5 -14t-0.5 -9.5t-0.5 -10t-0.5 -14.5t0.5 -14t1.5 -9.5t1.5 -10t0.5 -14.5
q0 -26 4 -44.5t13 -42.5q4 -11 6 -22t7 -21q17 -28 43.5 -51t54.5 -40q38 -20 79.5 -28.5t83.5 -8.5q12 0 29 3t35.5 8.5t35.5 11.5t28 12q29 18 52 43t40 54q5 10 12 18.5t11 19.5q8 24 10 43.5t2 44.5q0 9 0.5 14.5t1.5 10t1.5 9.5t0.5 14v14.5t0.5 10t0.5 9.5v14
t-0.5 14.5t-1.5 10t-1.5 9.5t-0.5 14t0.5 14.5t0.5 10t0.5 9.5t0.5 14v14.5t0.5 10t0.5 9.5v14t-0.5 14.5t-0.5 10t-0.5 9.5t-0.5 14v48v14.5t-0.5 10t-0.5 9.5v14q0 29 -17 42t-43 18q-10 0 -21.5 -5.5t-21 -14t-15.5 -19t-6 -21.5q0 -9 1 -14t2.5 -9.5t2.5 -10t1 -14.5
t-1 -14t-2.5 -9.5t-2.5 -10t-1 -14.5v-14t0.5 -9.5t0.5 -10v-14.5v-48q0 -9 0.5 -14t0.5 -9.5t0.5 -10t0.5 -14.5t-0.5 -14t-1 -9.5t-1 -10t-0.5 -14.5t0.5 -14t1 -9.5t0.5 -10v-14.5t-0.5 -14t-0.5 -9.5v-10v-14.5z" />
    <glyph glyph-name="V" unicode="V" horiz-adv-x="749" 
d="M360 232q-3 8 -4.5 12.5t-2 9t-2 9t-4.5 12.5t-5 12.5t-4.5 8t-4.5 8t-5 12.5t-4 13t-2 9t-2 9t-4 13t-5 12.5t-4.5 8t-4.5 8t-5 12.5t-4.5 12.5l-3 9l-3 9t-4.5 12.5t-5 12.5t-4 8t-4 8t-5 12.5t-4 13t-2 9t-2 9t-4 13t-5.5 12t-4.5 8t-4.5 8t-5.5 12t-4 13t-1 9t-1 9
t-4 13l-17 42q-3 7 -10 14.5t-15.5 13.5t-18 10t-17.5 4q-9 0 -18.5 -4.5t-17.5 -11.5t-14.5 -15.5t-9.5 -16.5q-3 -9 -3.5 -19.5t3.5 -20.5l16 -44q3 -8 5.5 -12.5t4.5 -8.5t4.5 -8.5t5.5 -12.5t4.5 -13t2.5 -9.5t2.5 -9.5t4.5 -13l17 -44q3 -8 4 -13t1.5 -9.5t1.5 -10
t4 -13.5t5.5 -12.5t5.5 -8.5t5.5 -8.5t5.5 -12.5t4.5 -13t2.5 -9.5t2.5 -9.5t4.5 -13t4.5 -13t3 -9.5t3 -9.5t4.5 -13l17 -44q3 -8 4.5 -13t2.5 -9.5t2.5 -9.5t4.5 -13l15 -44q3 -8 5.5 -12.5t5 -8.5t5 -8.5t5.5 -12.5t4 -13t1.5 -9.5t1.5 -10t4 -13.5q11 -26 31 -36t46 -10
q25 0 44.5 11.5t29.5 35.5l5 13t4.5 8.5t4.5 8.5l5 13t4 13t2 9.5t2 9.5t4 13t5.5 12.5t4.5 8.5t4.5 8.5t5.5 12.5t4 13.5t1 10t1 9.5t4 13l16 44l5 13t4.5 8.5t4.5 8.5l5 13l5 13t4 8.5t4 8.5l5 13l32 88q3 8 4 13.5t2 10t2 9.5t4 13l17 44q3 8 4.5 13t2.5 9.5t2.5 9.5
t4.5 13l5 13t4.5 8.5t4.5 8.5l5 13q4 10 5.5 20.5t-1.5 19.5q-9 29 -27.5 35.5t-44.5 6.5q-20 0 -31 -9t-19 -28l-30 -84q-3 -8 -5 -12.5t-4 -8t-4 -8t-5 -12.5t-4 -12.5l-2 -9l-2 -9t-4 -12.5t-5.5 -12l-5 -8l-5 -8t-5.5 -12t-4.5 -12.5t-2.5 -9t-2.5 -9t-4.5 -12.5
t-4.5 -12.5t-2.5 -9t-2.5 -9t-4.5 -12.5l-17 -42q-3 -8 -4.5 -12.5t-2.5 -9t-2.5 -9t-4.5 -12.5l-16 -42q-3 -8 -8 -8t-8 8z" />
    <glyph glyph-name="W" unicode="W" horiz-adv-x="992" 
d="M596 237q-4 10 -5 15t-2 9t-1.5 9.5t-3.5 15.5l-14 52q-3 11 -11 20t-19 16t-23 10.5t-23 3.5q-26 0 -46.5 -12.5t-30.5 -37.5l-20 -52q-4 -10 -5.5 -16t-2 -11t-2 -11t-5.5 -16q-3 -8 -12 -8q-10 0 -13 9l-17 42q-3 8 -4.5 12.5t-2.5 9t-2.5 9t-4.5 12.5t-5.5 12.5
l-4.5 8l-4.5 8t-5.5 12.5t-4 13t-1 9t-1 9t-4 13t-6 12l-5.5 7.5l-5.5 7.5t-6 12t-4 12.5l-2 9l-2 9t-4 12.5t-4.5 12.5t-2.5 9t-2.5 9t-4.5 12.5l-17 42q-3 8 -5 12.5t-4.5 8t-4.5 8t-5 12.5t-4 13t-1 9t-1 9t-4 13q-6 15 -26 25t-35 13q-44 0 -58 -44q-3 -9 -5 -19t2 -20
l15 -44q3 -8 5.5 -12.5t5 -8.5t5 -8.5t5.5 -12.5t4 -13t2 -9.5t2 -9.5t4 -13t5.5 -12.5t4.5 -8.5t4.5 -8.5t5.5 -12.5t4.5 -13t2.5 -9.5t2.5 -9.5t4.5 -13l17 -44q3 -8 4.5 -13t2.5 -9.5t2.5 -9.5t4.5 -13l5 -13t4.5 -8.5t4.5 -8.5l5 -13l15 -44q3 -8 4.5 -13t2 -9.5t2 -9.5
t4.5 -13l5 -13t4.5 -8.5t4.5 -8.5l5 -13t4 -13t2 -9.5t2 -9.5t4 -13t5.5 -13t4.5 -8.5t4.5 -8.5t5.5 -13q9 -22 28 -36t43 -14l18 2q8 2 15.5 3.5t12.5 5.5q6 4 12.5 15.5t13.5 25.5t12.5 27.5l8.5 20.5l6.5 14.5t5 10t5 10l6.5 14.5q3 9 14 9q8 0 11 -7q4 -9 5 -15t2 -11
t2 -11t5 -15l6.5 -14.5l4.5 -10l4.5 -10l6.5 -14.5q4 -10 12.5 -18.5t19 -15t22 -10.5t21.5 -4t19 1q8 1 15.5 2.5t12.5 5.5q10 7 17 17.5t12 21.5l16 44q3 8 4.5 13t2 9.5t2 9.5t4.5 13l5 13t4.5 8.5t4.5 8.5l5 13t4 13.5t1 10t1 9.5t4 13t5.5 12.5t5.5 8.5t5.5 8.5
t5.5 12.5t4.5 13t3 9.5t3 9.5t4.5 13l15 44q3 8 4.5 13t2 9.5t2 9.5t4.5 13t5.5 12.5t5 8.5t5 8.5t5.5 12.5t4 13.5t2 10t2 9.5t4 13t5.5 12.5t4.5 8.5t4.5 8.5t5.5 12.5t4.5 13t2 9.5t2 9.5t4.5 13l16 44q8 21 2 39q-6 20 -23 30.5t-37 10.5q-7 0 -14 -1q-5 -1 -11 -2
t-10 -4q-8 -5 -14.5 -12t-10.5 -16q-3 -8 -4 -13t-2 -9t-2 -9t-4 -13t-5.5 -12.5l-4.5 -8l-4.5 -8t-5.5 -12.5t-4.5 -12.5t-2.5 -9t-2.5 -9t-4.5 -12.5l-47 -126q-3 -8 -5 -12.5t-4 -8t-4 -8t-5 -12.5l-16 -42q-3 -8 -4 -12.5l-2 -9l-2 -9t-4 -12.5t-5.5 -12l-5 -8l-5 -8
t-5.5 -12q-3 -9 -11 -9q-6 0 -9 8z" />
    <glyph glyph-name="X" unicode="X" horiz-adv-x="630" 
d="M438 674q-8 -14 -11.5 -18.5t-11.5 -18.5t-9.5 -20t-9.5 -20l-22 -38q-8 -14 -10 -19.5t-10 -19.5l-22 -38q-3 -6 -12 -6q-8 0 -13 7l-22 38q-8 14 -10.5 19.5t-10.5 19.5l-22 38q-8 14 -10.5 19.5t-10.5 19.5t-10.5 19.5t-10.5 19.5q-4 7 -13 12t-18 9q-11 5 -23 8
q-9 0 -19 -4.5t-19 -12t-15.5 -17t-7.5 -18.5q-3 -20 10 -41q5 -7 7.5 -11.5t5 -8l5.5 -7.5t7 -12l24 -40q5 -7 7 -12l3.5 -9t4 -8.5t6.5 -12.5l8 -11.5t5.5 -7.5l6 -7t7.5 -12l24 -40q5 -7 7.5 -11.5t5 -8l5.5 -7.5t7 -12q5 -9 5.5 -21.5t-4.5 -21.5q-4 -7 -7 -11.5
t-6 -7.5t-5.5 -7l-7.5 -12q-4 -7 -7 -11.5t-6 -8t-5.5 -7.5l-7.5 -12q-4 -7 -6.5 -12t-5 -8.5t-4.5 -8t-7 -12.5q-4 -7 -7 -11.5t-6 -8t-5.5 -7.5l-7.5 -12q-4 -7 -6 -12t-3.5 -9.5l-3 -9t-6.5 -12.5q-4 -7 -7.5 -11.5l-6 -7.5t-5.5 -7t-8 -12q-6 -10 -8 -20.5t0 -21.5
q4 -29 18.5 -39t41.5 -10v1q34 0 50 27l22 38q8 14 12.5 18t12.5 18t8.5 20.5t8.5 20.5t11.5 18.5t11.5 18.5l21 38q5 6 13 6q9 0 12 -6q8 -14 9.5 -20t9.5 -20t12 -18.5t12 -18.5t9.5 -20t9.5 -20t13 -17.5t13 -17.5t10.5 -19.5t10.5 -19.5t21.5 -23.5t29.5 -9.5v2
q8 0 18 5.5t19 13.5t16 17t8 17q2 11 -2 21t-10 20l-72 120q-4 8 -6 12.5t-3.5 8.5l-3.5 9t-7 12q-4 8 -7.5 11.5l-7 7t-6.5 7.5l-8 11l-24 40q-5 9 -2.5 19.5t7.5 19.5q5 8 7 12.5t3.5 8.5t4 9t6.5 12l7.5 12t5.5 7.5t6 8t7 11.5q5 8 7 12.5t3.5 8.5t4 9t6.5 12l7.5 12
t5.5 7.5t6 8t7 11.5q5 8 7 12.5t3.5 8.5t4 9t6.5 12l7.5 12t5 7.5l5.5 8t7 11.5q6 10 10 20t2 21q-4 26 -21 38.5t-42 12.5q-16 0 -29 -8.5t-21 -22.5z" />
    <glyph glyph-name="Y" unicode="Y" horiz-adv-x="678" 
d="M330 449q-8 14 -12 18.5t-12 18.5t-9.5 20t-9.5 20t-13 17.5t-13 17.5t-10.5 19.5t-10.5 19.5t-11.5 18.5t-11.5 18.5t-8.5 20.5t-8.5 20.5q-4 7 -13 11.5t-19 7.5q-11 3 -23 5q-26 0 -42.5 -9.5t-20.5 -38.5q-2 -11 0.5 -22.5t8.5 -21.5l47 -76q9 -14 13.5 -18t13.5 -18
t13 -18.5t13 -18.5t9.5 -20.5t9.5 -20.5l24 -38q9 -14 13.5 -18t13.5 -18q1 -2 6.5 -11l11.5 -19t10.5 -18.5t4.5 -9.5q0 -8 -1 -13t-2 -9t-2 -9t-1 -13t0.5 -13t1 -9t1 -9t0.5 -13t-0.5 -13t-0.5 -9t-0.5 -9t-0.5 -13t1 -13t2 -9t2 -9t1 -13t-0.5 -13t-0.5 -9t-0.5 -9
t-0.5 -13q0 -28 17.5 -41t41.5 -18q23 0 42.5 16.5t19.5 41.5q0 8 -0.5 13t-1 9t-1 9t-0.5 13t0.5 13t1 9t1 9t0.5 13v44q0 8 0.5 13t0.5 9t0.5 9t0.5 13t-1 13t-2 9t-2 9t-1 13q0 11 7 21l23 38q9 14 15 17.5t15 17.5t10.5 20t10.5 20t13 18.5t13 18.5t10 20.5t10 20.5
l72 114q13 21 10 41q-4 26 -20.5 36.5t-40.5 12.5q-32 0 -49 -28q-8 -14 -13 -18t-13 -18l-22 -38q-8 -14 -10.5 -19.5t-10.5 -19.5t-10 -19.5t-10 -19.5t-12.5 -18t-12.5 -18t-12 -18.5t-12 -18.5q-7 -12 -20 -12q-15 0 -21 11z" />
    <glyph glyph-name="Z" unicode="Z" horiz-adv-x="690" 
d="M504 703q-17 0 -23 -2t-23 -2t-23 0.5t-23 0.5t-23 2.5t-23 2.5t-23 -2.5t-23 -2.5t-23 0.5t-23 0.5t-23 0.5t-23 0.5t-23 -1t-23 -1t-23 2t-23 2q-29 0 -43 -18.5t-20 -44.5q0 -26 19.5 -44t44.5 -18q8 0 13 -0.5t9 -1t9 -1t13 -0.5t13 1t9 1.5t9 1.5t13 1t13 -0.5t9 -1
t9 -1t13 -0.5t13 0.5t9 1t9 1t13 0.5t13 -1t9 -1.5t9 -1.5t13 -1h44q8 0 12 -5.5t-1 -11.5q-5 -7 -7.5 -11t-5 -7.5t-5 -7.5t-7.5 -11t-8.5 -10t-7.5 -6t-7.5 -6t-8.5 -10t-7 -11.5t-3.5 -8.5t-3.5 -8.5t-7 -11.5t-8.5 -10.5t-6.5 -6t-6.5 -6t-8.5 -10.5t-7 -11.5t-4 -8
t-4 -8t-7 -11.5l-26 -36q-5 -7 -8.5 -10.5t-7 -6t-7 -6t-8.5 -10.5t-7.5 -11t-4.5 -8t-4.5 -8t-7.5 -11t-8 -10.5l-6 -7l-6 -7t-8 -10.5l-26 -36q-5 -7 -7.5 -11t-5 -7.5t-5 -7.5t-7.5 -11l-50 -72q-5 -8 -9.5 -17t-4.5 -19l6 -18q3 -7 7 -14t8 -12q18 -18 44 -18
q17 0 23 1.5t23 1.5t23 -0.5t23 -0.5h46q17 0 23 -1t23 -1t23 -1t23 -1t23 1.5t23 1.5t23 -1t23 -1t23 0.5t23 0.5t23 0.5t23 0.5q27 0 42 20t23 42q0 26 -19.5 44t-44.5 18q-8 0 -13 -0.5t-9 -1.5t-9 -1.5t-13 -0.5t-13 1t-9 1.5t-9 1.5t-13 1t-13 -1t-9 -2t-9 -2t-13 -1
t-13 0.5t-9 1t-9 1t-13 0.5h-13t-9 -0.5t-9 -0.5h-13h-44q-8 0 -13 8.5t0 14.5q5 7 8.5 10l7 6l7 6t8.5 10t7 11.5t4 8t4 8t7 11.5t7.5 11t5 7.5t5 7.5t7.5 11l25 36q5 7 8 10.5t6 6.5t6 6.5t8 10.5t7.5 11l4.5 7.5l4.5 7.5t7.5 11t8.5 10.5t6.5 6t6.5 6t8.5 10.5l26 36
q5 7 7 11.5l3.5 8l3.5 8t7 11.5t8.5 10.5t6.5 6t6.5 6t8.5 10.5t7.5 11t4 8t4 8t7.5 11t8.5 10.5l6.5 6.5t6 6.5t8 10.5t7.5 11t4 8t4 8t7.5 11q10 14 10 35q-1 10 -3 18l-4 15.5t-7 11.5q-8 8 -19.5 13.5t-24.5 5.5h-46z" />
    <glyph glyph-name="a" unicode="a" horiz-adv-x="743" 
d="M342 350q3 8 4 12.5t1 8.5t1 9t4 12q6 15 11 19t11 19t5.5 21t5.5 21q3 8 11 8q9 0 12 -9l17 -40q6 -15 10 -19t10 -19t6 -21t6 -21q2 -6 -1 -11.5t-10 -5.5q-17 0 -23 1.5t-23 1.5t-23 -1.5t-23 -1.5q-7 0 -9 4.5t0 10.5zM320 653q-12 -8 -18 -13t-9 -9.5t-4 -10
t-4 -13.5t-5.5 -12.5t-5.5 -8.5t-5.5 -8.5t-5.5 -12.5t-4 -13t-1.5 -9.5t-1.5 -10t-4 -13.5l-5 -13t-4.5 -8.5t-4.5 -8.5l-5 -13l-15 -44q-3 -8 -4 -13t-2 -9.5t-2 -10t-4 -13.5t-5.5 -12.5t-4.5 -8.5t-4.5 -8.5t-5.5 -12.5l-15 -44l-5 -13t-4.5 -8.5t-4.5 -8.5l-5 -13
t-4.5 -13t-2 -9.5t-2 -9.5t-4.5 -13l-33 -88q-3 -8 -4 -13t-2 -9.5t-2 -10t-4 -13.5q-4 -10 -6 -19.5t1 -18.5q2 -7 9 -15t15.5 -15t18 -11t17.5 -4v3q23 0 35 9t21 30q3 9 5.5 14t5 9.5t5 9.5t5.5 14t4.5 14.5t3 10t3 10t4.5 14.5t5.5 14t4 9.5t4 9.5t5.5 14q5 11 15 16
t22 5q8 0 13 1t9 1.5t9 1.5t13 1t13 -1t9 -2.5t9 -2.5t13 -1t13 0.5t9 0.5t9 0.5t13 0.5h44q23 0 33 -23q3 -9 6 -14t5 -9t5 -9t6 -14l34 -96q8 -17 23.5 -30t35.5 -13v2q8 0 17 4.5t18 11.5t16 15.5t9 15.5q3 9 1 18t-6 19q-3 8 -4.5 13t-2 9.5t-2 9.5t-4.5 13l-16 44
l-5 13t-4 8.5t-4 8.5l-5 13l-17 44q-3 8 -4.5 13t-2 9.5t-2 9.5t-4.5 13l-16 44l-5 13t-4.5 8.5t-4.5 8.5l-5 13t-4.5 13t-3 9.5t-3 9.5t-4.5 13l-15 44q-3 8 -4.5 13t-2.5 9.5t-2.5 9.5t-4.5 13l-17 44q-3 8 -5.5 12.5t-4.5 8.5t-4.5 8.5t-5.5 12.5t-4.5 13t-2 9.5t-2 9.5
t-4.5 13q-4 9 -12 18t-18 16t-21.5 11t-21.5 4q-9 -2 -17 -4q-7 -2 -14 -4.5t-12 -6.5q-10 -7 -19.5 -14.5t-14.5 -18.5z" />
    <glyph glyph-name="b" unicode="b" horiz-adv-x="628" 
d="M204 287q0 16 12.5 27.5t28.5 11.5q14 0 19 -2.5t19 -2.5t19 0.5t19 0.5q23 0 44 -5.5t37.5 -17t26 -29t9.5 -42.5q0 -15 -6 -29.5t-16.5 -27t-23.5 -22t-28 -12.5l-23 -6t-19 -3q-14 0 -19 3t-19 3t-19 0.5t-19 0.5q-16 0 -27 9.5t-11 25.5q0 14 -2 19t-2 19t3 19t2 19
q-1 15 -3 20t-2 19v2zM298 443q-10 0 -15.5 0.5t-10.5 0.5t-10.5 0.5t-15.5 0.5q-16 0 -25.5 11.5t-9.5 27.5v19t-0.5 13t-0.5 13v19q0 16 9.5 25t25.5 9q10 0 15.5 0.5l10.5 1l10.5 1t15.5 0.5q20 0 38.5 -6.5t29.5 -24.5q4 -7 4 -16.5v-21.5q0 -20 -8 -36.5t-27 -24.5
q-12 -5 -22.5 -8t-15.5 -3zM464 392q-4 3 -4.5 9t1.5 11q9 14 14.5 25t9 21.5t5 23t1.5 29.5q0 55 -25.5 98t-73.5 69q-14 8 -25 13t-22 8.5t-23 5t-29 1.5q-9 0 -14.5 -0.5t-10.5 -0.5t-10.5 -0.5t-14.5 -0.5t-14.5 -0.5t-10.5 -1.5t-10.5 -1.5t-14.5 -0.5t-14.5 1l-10.5 2
l-10.5 2t-14.5 1q-29 0 -45.5 -17.5t-16.5 -46.5q0 -8 0.5 -13t1.5 -9t1.5 -9t0.5 -13t-1 -13t-1.5 -9t-1.5 -9t-1 -13v-44q0 -8 0.5 -13t0.5 -9t0.5 -9t0.5 -13t-0.5 -13t-1 -9t-1 -9t-0.5 -13t0.5 -13t1 -9t1 -9t0.5 -13t0.5 -13t1.5 -9t1.5 -9t0.5 -13v-13t-0.5 -9
t-0.5 -9v-13t-0.5 -13t-1 -9t-1 -9t-0.5 -13v-13t-0.5 -9t-0.5 -9v-13t0.5 -13t1 -9t1 -9t0.5 -13t0.5 -13t0.5 -9t0.5 -9t0.5 -13t-0.5 -13t-0.5 -9t-0.5 -9t-0.5 -13q0 -33 14.5 -45.5t46.5 -12.5q8 0 13 -1t9 -2t9 -2t13 -1t13 0.5t9 1.5t9 1.5t13 0.5t13 -0.5t9 -1t9 -1
t13 -0.5h13t9 -0.5t9 -0.5h13q34 0 64.5 8.5t60.5 22.5q5 2 15.5 9.5l22.5 16.5l22 17t13 11q8 10 11 22t8 23t11 21t8 22q5 25 5 47q0 15 -3.5 34.5t-10.5 39.5t-15.5 38t-19.5 30q-8 10 -23 13t-26 11z" />
    <glyph glyph-name="c" unicode="c" horiz-adv-x="774" 
d="M556 163q-13 -8 -29.5 -15.5t-34.5 -13t-36 -9t-34 -3.5q-11 0 -22.5 2l-22.5 4q-21 3 -44 11t-41 19q-3 2 -13 11l-21 19.5t-20 20t-11 12.5q-6 9 -8.5 20.5t-6.5 22.5q-4 10 -9 20t-7 22q-2 11 0 22t2 23q0 45 11.5 88.5t46.5 75.5q9 9 24.5 18t32.5 17t34.5 13.5
t30.5 7.5q11 2 22.5 4.5t22.5 2.5t29 -3.5t38 -9.5t38.5 -13t28.5 -13q5 -3 11.5 -7.5t12.5 -9.5q7 -6 14 -11q9 -9 19 -15t22 -7q6 0 13.5 2.5t14.5 5.5q8 4 16 9q20 20 21 43q1 6 -2 13.5l-6 14.5q-4 8 -9 16q-8 9 -15.5 18.5t-17.5 17.5q-18 14 -41 27q-11 6 -23 8.5
t-23 7.5l-22 10t-23 8q-22 6 -47 8t-48 2q-22 0 -45 -1t-44 -6q-1 0 -13 -5l-27 -11l-28 -11.5t-15 -6.5q-94 -54 -135 -128.5t-41 -180.5q0 -35 5 -71.5t18 -68.5q4 -9 13.5 -26t21.5 -35.5l23.5 -35t19.5 -23.5q8 -8 19 -12t20 -11q34 -25 77 -41q11 -4 21 -10t21 -8
q12 -2 25.5 -4.5t26.5 -2.5q9 0 18.5 1.5t18.5 1.5h24t24 2q4 1 8 1h8h8h13t11 2q12 3 23 9.5t22 11.5l36 15t30 15.5t27 20.5t26 29q17 17 15 42q-1 12 -4 23.5t-12 20.5q-8 5 -16 9q-7 4 -14.5 7t-13.5 2q-12 -1 -22 -8t-19 -16l-39 -28z" />
    <glyph glyph-name="d" unicode="d" horiz-adv-x="735" 
d="M311 126q-14 0 -18 2.5t-18 2.5t-18 -2.5t-18 -2.5q-16 0 -28.5 12.5t-12.5 28.5q0 9 0.5 14.5t0.5 10t0.5 9.5t0.5 14v48v14.5t-0.5 10t-0.5 9.5v14v14.5t-0.5 10t-0.5 9.5v14t0.5 14.5t1 10t1 9.5t0.5 14t0.5 14.5t1 10t1 9.5t0.5 14t-0.5 14.5t-0.5 10t-0.5 9.5
t-0.5 14t-0.5 14.5t-0.5 10t-0.5 9.5t-0.5 14q0 16 11.5 26.5t27.5 10.5q14 0 18 0.5t18 0.5q40 0 78.5 -5.5t71 -20.5t58 -42t40.5 -71q6 -15 9 -24.5t5 -18.5t2.5 -19t0.5 -27q0 -43 -16 -88t-49 -75q-8 -8 -15.5 -17t-17.5 -15q-18 -11 -41 -19t-44 -11q-11 -2 -23 -6
t-23 -4zM522 640q-6 5 -22.5 12.5l-35.5 15.5t-37 14.5t-28 8.5q-43 9 -89 9h-12.5t-8.5 -0.5t-8.5 -0.5h-12.5t-12.5 0.5t-8.5 1t-8.5 1t-12.5 0.5t-12.5 0.5t-8.5 1t-8.5 1t-12.5 0.5t-12.5 -0.5t-8.5 -0.5t-8.5 -0.5t-12.5 -0.5q-12 0 -23 -5.5t-20 -14.5t-14.5 -20
t-5.5 -23v-13t0.5 -9t0.5 -9v-13t-0.5 -13t-0.5 -9t-0.5 -9t-0.5 -13v-44q0 -8 0.5 -13t0.5 -9t0.5 -9t0.5 -13v-88v-13t-0.5 -9t-0.5 -9v-13v-13t-0.5 -9t-0.5 -9v-13t1 -13t1.5 -9t1.5 -9t1 -13v-13t-0.5 -9t-0.5 -9v-13t-0.5 -13t-1 -9t-1 -9t-0.5 -13v-13t0.5 -9t0.5 -9
v-13t-0.5 -13t-0.5 -9t-0.5 -9t-0.5 -13q0 -29 18.5 -44t45.5 -15h42h12.5t8.5 0.5t8.5 0.5h12.5t12.5 -0.5t8.5 -1t8.5 -1t12.5 -0.5t12.5 -0.5t8.5 -1.5t8.5 -1.5t12.5 -0.5q11 0 22.5 4t22.5 6t22 2.5t22 2.5q21 4 36.5 8.5t29 10.5t26.5 14.5t29 20.5q48 35 83 84
t49 107q3 11 2.5 23t1.5 24q2 11 4.5 22.5t2.5 23.5t-2.5 24t-4.5 23q-2 12 -1.5 24t-2.5 23q-3 12 -7.5 23t-9.5 22t-7.5 23t-8.5 23q-19 33 -42.5 54.5t-54.5 44.5z" />
    <glyph glyph-name="e" unicode="e" horiz-adv-x="567" 
d="M188 4q9 0 14.5 -0.5t10 -1t9.5 -1t14 -0.5t14.5 -0.5t10 -0.5t9.5 -0.5t14 -0.5t14.5 1t10 2t9.5 2t14 1t14.5 -0.5t10 -1t9.5 -1t14 -0.5h14.5t10 0.5t9.5 0.5h14q31 0 43.5 16t17.5 44q0 32 -15.5 45.5t-46.5 13.5q-9 0 -14 0.5t-9.5 1.5t-10 1.5t-14.5 0.5h-14
t-9.5 0.5t-10 0.5h-14.5t-14 -0.5t-9.5 -1t-10 -1t-14.5 -0.5h-14t-9.5 0.5t-10 0.5h-14.5q-16 0 -26 11t-10 27q0 10 -0.5 16t-1 11t-1 11t-0.5 16t-0.5 16t-0.5 11t-0.5 11t-0.5 16q0 16 12.5 26.5t28.5 10.5q17 0 23 1t23 1t23 -0.5t23 -0.5t23 -1.5t23 -1.5q11 0 21.5 6
t19 15.5t13.5 21t5 21.5q-2 9 -4 17t-4.5 15t-7.5 11q-8 8 -19 13.5t-24 5.5q-17 0 -23 0.5t-23 0.5t-23 -1t-23 -1t-23 2t-23 2q-16 0 -28.5 9.5t-12.5 25.5q0 7 1 11t2 7t2 7t1 11q0 14 -0.5 18t-0.5 18q0 16 9.5 28t25.5 12q9 0 14.5 -1t10 -1.5t9.5 -1.5t14 -1h14.5
t10 -0.5t9.5 -0.5h14t14.5 1t10 2.5t9.5 2.5t14 1t14.5 -0.5t10 -1t9.5 -1t14 -0.5q25 0 43.5 18t18.5 43t-17.5 45t-43.5 20q-9 0 -14 -0.5t-9.5 -0.5t-10 -0.5t-14.5 -0.5h-14t-9.5 0.5t-10 0.5h-14.5h-96h-96q-29 0 -44.5 -18.5t-15.5 -45.5v-44q0 -8 -0.5 -13t-0.5 -9
t-0.5 -9t-0.5 -13t1 -13t1.5 -9t1.5 -9t1 -13t-0.5 -13t-0.5 -9t-0.5 -9t-0.5 -13v-13t0.5 -9t0.5 -9v-13v-44v-13t0.5 -9t0.5 -9v-13t-1 -13t-1.5 -9t-1.5 -9t-1 -13t0.5 -13t1.5 -9t1.5 -9t0.5 -13t-0.5 -13t-1.5 -9t-1.5 -9t-0.5 -13t-0.5 -13t-0.5 -9t-0.5 -9t-0.5 -13
t0.5 -13t1.5 -9t1.5 -9t0.5 -13t-0.5 -13t-1 -9t-1 -9t-0.5 -13q0 -12 5.5 -23.5t14.5 -20.5t20.5 -15t23.5 -6h48z" />
    <glyph glyph-name="f" unicode="f" horiz-adv-x="564" 
d="M140 5q60 0 60 59q0 8 -0.5 12.5t-0.5 8.5t-0.5 8.5t-0.5 12.5t0.5 12.5t1 8.5t1 8.5t0.5 12.5v12.5t-0.5 8.5t-0.5 8.5v12.5t0.5 12.5t0.5 8.5t0.5 8.5t0.5 12.5t0.5 12.5t0.5 8.5t0.5 8.5t0.5 12.5q0 16 10 27.5t26 11.5q17 0 23 -2t23 -2h46q17 0 23 0.5t23 0.5
q27 0 43.5 18t16.5 44q-2 9 -5 16l-6 14t-8 11q-8 8 -18 14.5t-23 6.5q-17 0 -23 -2t-23 -2t-23 2t-23 2h-46q-16 0 -27.5 10t-11.5 26q0 14 1.5 18t1.5 18q0 7 -1 11t-2 7t-2 7t-1 11q0 16 12.5 28t28.5 12h14.5t10 0.5t9.5 0.5h14t14.5 -0.5t10 -0.5t9.5 -0.5t14 -0.5
t14.5 0.5t10 1t9.5 1t14 0.5t14.5 -1t10 -2t9.5 -2t14 -1q31 0 44 17.5t15 45.5q0 11 -5 22t-13.5 20t-19 15t-21.5 6h-96q-9 0 -14 -0.5t-9.5 -0.5t-10 -0.5t-14.5 -0.5t-14 0.5t-9.5 1t-10 1t-14.5 0.5h-14t-9.5 0.5t-10 0.5h-14.5t-14 -1t-9.5 -2t-10 -2t-14.5 -1
q-58 0 -58 -58q0 -8 -0.5 -13t-0.5 -9t-0.5 -9t-0.5 -13t0.5 -13t0.5 -9t0.5 -9t0.5 -13t-1 -13t-2 -9t-2 -9t-1 -13t1 -13t1.5 -9t1.5 -9t1 -13t-0.5 -13t-1 -9t-1 -9t-0.5 -13t0.5 -13t0.5 -9t0.5 -9t0.5 -13t0.5 -13t0.5 -9t0.5 -9t0.5 -13v-44q0 -8 -1 -13t-1.5 -9
t-1.5 -9t-1 -13t0.5 -13t0.5 -9t0.5 -9t0.5 -13t-0.5 -13t-0.5 -9t-0.5 -9t-0.5 -13t1 -13t2 -9t2 -9t1 -13t-0.5 -13t-0.5 -9t-0.5 -9t-0.5 -13q0 -30 15 -43.5t41 -21.5z" />
    <glyph glyph-name="g" unicode="g" horiz-adv-x="778" 
d="M447 580q17 0 37.5 -5.5t41 -15t38.5 -21.5t31 -25l16 -10q6 -3 13.5 -6t13.5 -4q6 0 13.5 2.5t14.5 5.5q8 3 16 8q9 9 13.5 20.5t5.5 23.5q1 6 -1.5 13.5t-6.5 14.5q-3 8 -8 16q-27 30 -54 49t-65 34q-11 5 -23.5 6.5t-24.5 4.5q-11 3 -22.5 7t-23.5 6t-24 3.5t-24 1.5
q-22 0 -44.5 -2.5t-44.5 -7.5q-9 -2 -27 -9t-36.5 -16t-35 -18t-22.5 -14q-10 -7 -23.5 -20t-27 -28l-25.5 -29.5t-19 -26.5q-6 -11 -9 -22.5t-8 -22.5t-11 -22t-9 -23q-6 -22 -9 -47q-2 -11 0 -23t2 -24q0 -43 4.5 -77t16.5 -64t32.5 -58t52.5 -57l15.5 -16t16.5 -15
q21 -15 40.5 -25t39.5 -17t41.5 -11t45.5 -7l22.5 -4t22.5 -2q26 0 48 4.5t46 11.5q12 3 24.5 3.5t23.5 5.5t20 13t20 14t22.5 9.5t21.5 11.5t17.5 17.5t15.5 18.5l1 -1q8 8 11.5 19t3.5 23q0 9 0.5 14.5t0.5 10.5t0.5 10.5t0.5 14.5v14.5t0.5 10.5t0.5 10.5v14.5v14.5
t0.5 10.5t0.5 10.5v14.5q0 26 -18.5 43t-43.5 17q-17 0 -23 -1t-23 -1t-23 1t-23 1t-23 1t-23 1t-23 1t-23 1t-23 -1t-23 -1q-33 0 -45.5 -15.5t-14.5 -46.5q0 -30 14 -46t46 -16q8 0 13 0.5t9 1t9 1t13 0.5h44h13t9 -0.5t9 -0.5h13q16 0 28 -12t12 -28v-4q0 -7 -7 -15.5
t-17 -16.5t-20 -14t-16 -8q-16 -6 -33 -10.5t-34 -4.5q-7 0 -13.5 0.5t-14.5 0.5q-11 0 -22.5 0.5t-22.5 2.5q-14 2 -24.5 4.5t-19.5 6t-18 8.5l-21 12q-10 6 -20.5 11t-18.5 13q-8 7 -17.5 22.5t-18.5 33t-15.5 35t-8.5 29.5q-2 11 -2 22v23t3 22.5t5 21.5q2 12 1 23.5
t3 21.5q2 7 8 18t13.5 22.5l15 22t12.5 14.5q26 26 57 38t66 17q17 3 31.5 5t31.5 2z" />
    <glyph glyph-name="h" unicode="h" horiz-adv-x="715" 
d="M477 445h-48h-14t-9.5 -0.5t-10 -0.5h-14.5t-14 0.5t-9.5 1t-10 1t-14.5 0.5t-14 -1t-9.5 -2t-10 -2t-14.5 -1t-14 1t-9.5 2t-10 2t-14.5 1q-16 0 -25.5 9t-9.5 25v40q0 15 -1.5 20t-1.5 20t2 20t2 20t-2 20t-2 20q0 31 -14 46t-46 15q-23 0 -42.5 -19t-19.5 -42
q0 -8 0.5 -13t1 -9t1 -9t0.5 -13t-1 -13t-2 -9t-2 -9t-1 -13v-13t0.5 -9t0.5 -9v-13v-44q0 -8 0.5 -13t0.5 -9t0.5 -9t0.5 -13v-13t0.5 -9t0.5 -9v-13v-44v-13t0.5 -9t0.5 -9v-13t-0.5 -13t-1.5 -9t-1.5 -9t-0.5 -13v-44q0 -8 0.5 -13t1 -9t1 -9t0.5 -13t0.5 -13t0.5 -9
t0.5 -9t0.5 -13v-44q0 -13 2.5 -25.5t10.5 -20.5t20.5 -14t25.5 -6q29 0 44 19t15 46v13t0.5 9t0.5 9v13t0.5 13t1 9t1 9t0.5 13t-0.5 13t-0.5 9t-0.5 9t-0.5 13t0.5 13t1.5 9t1.5 9t0.5 13v44q0 16 9.5 27.5t25.5 11.5q9 0 14.5 -0.5t10 -0.5t9.5 -0.5t14 -0.5h48h14.5
t10 0.5t9.5 0.5h14t14.5 -0.5t10 -0.5t9.5 -0.5t14 -0.5t14.5 0.5t10 1.5t9.5 1.5t14 0.5q16 0 27 -12t11 -28q0 -8 -0.5 -13t-0.5 -9t-0.5 -9t-0.5 -13v-13t-0.5 -9t-0.5 -9v-13t1 -13t2 -9t2 -9t1 -13v-13t0.5 -9t0.5 -9v-13t-0.5 -13t-0.5 -9t-0.5 -9t-0.5 -13
q0 -25 16.5 -43.5t42.5 -18.5q28 0 43.5 17.5t15.5 44.5v88q0 8 0.5 13t1 9t1 9t0.5 13t-0.5 13t-1 9t-1 9t-0.5 13t1 13t1.5 9t1.5 9t1 13t-0.5 13t-1 9t-1 9t-0.5 13v13t0.5 9t0.5 9v13t0.5 13t0.5 9t0.5 9t0.5 13t-1 13t-2 9t-2 9t-1 13t1 13t1.5 9t1.5 9t1 13v44
q0 8 -0.5 13t-0.5 9t-0.5 9t-0.5 13t-0.5 13t-1 9t-1 9t-0.5 13q0 29 -15 44.5t-44 15.5q-10 0 -21 -5.5t-20 -14t-15 -19t-6 -21.5q0 -15 -0.5 -20t-0.5 -20v-40q0 -15 2.5 -20t2.5 -20t-2 -20t-2 -20q0 -16 -11 -25.5t-27 -9.5z" />
    <glyph glyph-name="i" unicode="i" horiz-adv-x="279" 
d="M140 0q29 0 44.5 18.5t15.5 45.5v44q0 8 0.5 13t1 9t1 9t0.5 13t-0.5 13t-1 9t-1 9t-0.5 13v44v13t0.5 9t0.5 9v13t0.5 13t1.5 9t1.5 9t0.5 13t-0.5 13t-1 9t-1 9t-0.5 13t0.5 13t1 9t1 9t0.5 13t-0.5 13t-0.5 9t-0.5 9t-0.5 13t0.5 13t0.5 9t0.5 9t0.5 13t-0.5 13t-1 9
t-1 9t-0.5 13v13t-0.5 9t-0.5 9v13v44q0 12 -5 22.5t-13.5 18.5t-19.5 13t-22 5q-23 0 -42.5 -18.5t-19.5 -41.5v-88q0 -8 -0.5 -13t-0.5 -9t-0.5 -9t-0.5 -13t1 -13t1.5 -9t1.5 -9t1 -13t-1 -13t-2 -9t-2 -9t-1 -13t0.5 -13t0.5 -9t0.5 -9t0.5 -13t0.5 -13t1.5 -9t1.5 -9
t0.5 -13t-1 -13t-2 -9t-2 -9t-1 -13t1 -13t2.5 -9t2.5 -9t1 -13t-1 -13t-2 -9t-2 -9t-1 -13t0.5 -13t1.5 -9t1.5 -9t0.5 -13t0.5 -13t0.5 -9t0.5 -9t0.5 -13v-44q0 -10 5 -21.5t13 -20.5t18 -15t21 -6z" />
    <glyph glyph-name="j" unicode="j" horiz-adv-x="396" 
d="M197 52q0 -31 -18 -44.5t-45 -18.5q-30 0 -42 -14.5t-17 -43.5q0 -32 15 -43.5t44 -14.5q8 0 14.5 -0.5t14.5 -0.5q26 0 54 15t47 34q5 5 12.5 16t14 24l12 25t7.5 19q3 11 3.5 23t0.5 24q0 17 0.5 23t0.5 23t0.5 23t0.5 23t-1.5 23t-1.5 23t2.5 23t2.5 23t-2 23t-2 23
t0.5 23t0.5 23v46q0 17 1.5 23t1.5 23v46q0 17 -2 23t-2 23t1 23t1 23v92q0 26 -17.5 45t-44.5 19q-26 0 -42 -20.5t-16 -44.5q0 -17 -2.5 -23t-2.5 -23t2 -23t2 -23t-3 -23t-3 -23t3.5 -23t3.5 -23t-3.5 -23t-3.5 -23t1.5 -23t1.5 -23v-92q0 -17 -0.5 -23t-0.5 -23t2 -23
t2 -23t-3 -23t-3 -23t3 -23t4 -23t1 -22.5v-22.5z" />
    <glyph glyph-name="k" unicode="k" horiz-adv-x="677" 
d="M448 688q-6 -6 -9.5 -10t-5.5 -8t-5.5 -8t-9.5 -10t-10.5 -9t-8 -5t-8 -5t-10.5 -9t-9.5 -10t-5.5 -8t-5.5 -8t-9.5 -10t-10 -9t-7.5 -6t-7.5 -6t-10 -9t-10 -9l-8 -6l-8 -6t-10 -9t-9.5 -10t-5.5 -8t-5.5 -8t-9.5 -10t-10 -9.5t-7.5 -6t-7.5 -6t-10 -9.5q-4 -2 -6 -2
q-5 0 -9.5 2.5t-4.5 7.5v12.5t0.5 8.5t0.5 8.5v12.5v12.5t0.5 8.5t0.5 8.5v12.5v42q0 8 0.5 12.5t1.5 8.5t1.5 8.5t0.5 12.5q0 26 -21 40t-43 19q-11 0 -22 -5t-19.5 -13t-13.5 -18.5t-5 -22.5v-13t-0.5 -9t-0.5 -9v-13t0.5 -13t0.5 -9t0.5 -9t0.5 -13t-0.5 -13t-0.5 -9
t-0.5 -9t-0.5 -13v-13t-0.5 -9t-0.5 -9v-13v-44v-13t-0.5 -9t-0.5 -9v-13t1 -13t1.5 -9t1.5 -9t1 -13t-0.5 -13t-1.5 -9t-1.5 -9t-0.5 -13t1 -13t1.5 -9t1.5 -9t1 -13v-44v-13t-0.5 -9t-0.5 -9v-13t-0.5 -13t-1.5 -9t-1.5 -9t-0.5 -13q0 -21 1 -37.5t7 -29t19 -22t37 -17.5
q29 0 43.5 17.5t14.5 44.5q0 8 0.5 12.5t0.5 8.5t0.5 8.5t0.5 12.5t0.5 12.5t1 8.5t1 8.5t0.5 12.5t-0.5 12.5t-1 8.5t-1 8.5t-0.5 12.5v12.5t0.5 8.5t0.5 8.5v12.5v42q0 4 3 7q1 1 3 1q2 1 6 1q3 0 4 -1q12 -11 14.5 -17t14.5 -17t17.5 -13.5t17.5 -13.5l32 -31
q12 -11 16.5 -14.5t16.5 -14.5l32 -30q12 -11 15 -16.5t15 -16.5t17.5 -13.5t17.5 -13.5t14.5 -16.5t14.5 -16.5t18 -13t18 -13q16 -16 40 -16q10 1 19 2q8 2 15.5 4.5t11.5 6.5q8 9 12.5 21.5t4.5 24.5q0 11 -4.5 23t-14.5 21q-6 6 -10.5 9t-8.5 5t-8.5 5t-10.5 9t-9.5 10
t-6 7.5t-6 7.5t-9.5 10t-9.5 10t-6.5 7t-6.5 7t-9.5 10t-10 9.5t-7.5 6t-7.5 6t-10 9.5l-9.5 9.5t-6.5 7t-7 7t-10 9.5t-10 9.5t-7.5 6t-7.5 6t-10 9.5t-10 9t-7.5 6t-7.5 6t-10 9t-10 9.5t-7.5 6t-7.5 6t-10 9.5q-3 2 -1 5.5t5 5.5q12 11 15 16t15 16t16.5 14.5t16.5 14.5
l32 30q12 11 15.5 15.5t15.5 15.5t17 14t17 14t14.5 16.5t14.5 16.5t17 13.5t17 13.5q10 9 14 21.5t4 23.5q0 14 -8 28.5t-20.5 26.5t-27 20t-27.5 8q-17 0 -31 -14z" />
    <glyph glyph-name="l" unicode="l" horiz-adv-x="575" 
d="M78 640v-88v-44q0 -8 0.5 -13t0.5 -9t0.5 -9t0.5 -13v-13t0.5 -9t0.5 -9v-13t-0.5 -13t-1 -9t-1 -9t-0.5 -13t-0.5 -13t-0.5 -9t-0.5 -9t-0.5 -13v-13t-0.5 -9t-0.5 -9v-13v-44q0 -8 0.5 -13t0.5 -9t0.5 -9t0.5 -13v-13t-0.5 -9t-0.5 -9v-13t-0.5 -13t-0.5 -9t-0.5 -9
t-0.5 -13v-44q0 -10 6 -21.5t15.5 -21t21 -16t21.5 -6.5q8 0 12.5 0.5t8.5 1t8.5 1t12.5 0.5t12.5 -0.5t8.5 -0.5t8.5 -0.5t12.5 -0.5t12.5 1t8.5 1.5t8.5 1.5t12.5 1h12.5t8.5 -0.5t8.5 -0.5h12.5t12.5 -0.5t8.5 -1.5t8.5 -1.5t12.5 -0.5h12.5t8.5 0.5t8.5 0.5h12.5
t12.5 0.5t8.5 0.5t8.5 0.5t12.5 0.5q32 0 44 15t16 45q0 25 -18.5 41.5t-42.5 16.5h-14.5t-10.5 0.5t-10.5 0.5h-14.5t-14.5 0.5l-10.5 1l-10.5 1t-14.5 0.5t-14.5 0.5t-10.5 0.5t-10.5 0.5t-14.5 0.5t-14.5 -0.5l-10.5 -1l-10.5 -1t-14.5 -0.5q-16 0 -26.5 11t-10.5 27
q0 8 -0.5 13t-1 9t-1 9t-0.5 13t0.5 13t0.5 9t0.5 9t0.5 13t-0.5 13t-0.5 9t-0.5 9t-0.5 13t0.5 13t0.5 9t0.5 9t0.5 13v13t-0.5 9t-0.5 9v13t-0.5 13t-0.5 9t-0.5 9t-0.5 13v44q0 8 0.5 13t0.5 9t0.5 9t0.5 13v88q0 8 -0.5 13t-1 9t-1 9t-0.5 13q0 18 -8.5 35t-29.5 17
q-31 0 -52 -14t-21 -48z" />
    <glyph glyph-name="m" unicode="m" horiz-adv-x="818" 
d="M407 452q-11 12 -17.5 17.5t-17.5 17.5t-17 14t-17 14t-13 18t-13 18t-17 14.5t-17 14.5t-14 17t-14 17t-14 17t-14 17l-30 32q-9 9 -22 11.5t-26 2.5q-10 -1 -19 -2q-8 -2 -15 -4t-12 -7q-18 -18 -18 -46v-13t-0.5 -9t-0.5 -9v-13t1 -13t1.5 -9t1.5 -9t1 -13v-13t0.5 -9
t0.5 -9v-13t-0.5 -13t-1.5 -9t-1.5 -9t-0.5 -13v-44q0 -8 0.5 -13t0.5 -9t0.5 -9t0.5 -13t0.5 -13t0.5 -9t0.5 -9t0.5 -13t-1 -13t-2 -9t-2 -9t-1 -13t1 -13t1.5 -9t1.5 -9t1 -13t-0.5 -13t-1 -9t-1 -9t-0.5 -13t0.5 -13t1 -9t1 -9t0.5 -13t-0.5 -13t-1.5 -9t-1.5 -9
t-0.5 -13v-13t-0.5 -9t-0.5 -9v-13q0 -12 5.5 -23t14.5 -19.5t20.5 -14t23.5 -5.5q26 0 43.5 18t17.5 44q0 8 0.5 13t1 9t1 9t0.5 13t-1 13t-1.5 9t-1.5 9t-1 13v13t0.5 9t0.5 9v13t-0.5 13t-0.5 9t-0.5 9t-0.5 13v44v13t0.5 9t0.5 9v13t0.5 13t0.5 9t0.5 9t0.5 13v13t0.5 9
t0.5 9v13t-0.5 13t-1.5 9t-1.5 9t-0.5 13q0 6 4.5 9.5t9.5 3.5q6 0 11 -5l96 -102q6 -6 10 -9.5t7 -6.5t7 -6.5t10 -9.5l32 -34q12 -14 31 -14q14 0 25 11q6 6 9 10l6 8l6 8t9 10t9 10l6 8l6 8t9 10t10 9.5t7.5 6t7.5 6t10 9.5t9 10l6 8l6 8t9 10l8 8t13 12l13 11t9 5
q5 0 8.5 -3.5t3.5 -9.5q0 -8 1 -13t1.5 -9t1.5 -9t1 -13v-44v-13t-0.5 -9t-0.5 -9v-13v-44q0 -8 -1 -13t-2 -9t-2 -9t-1 -13v-13t0.5 -9t0.5 -9v-13t0.5 -13t0.5 -9t0.5 -9t0.5 -13v-13t-0.5 -9t-0.5 -9v-13v-44q0 -13 6 -23t15 -17.5t20 -13t21 -9.5q29 0 46 17t17 46v44
q0 8 -0.5 13t-0.5 9t-0.5 9t-0.5 13t-0.5 13t-0.5 9t-0.5 9t-0.5 13v13t0.5 9t0.5 9v13t1 13t1.5 9t1.5 9t1 13t-1 13t-2 9t-2 9t-1 13t0.5 13t1.5 9t1.5 9t0.5 13t-0.5 13t-0.5 9t-0.5 9t-0.5 13v44q0 8 -0.5 13t-0.5 9t-0.5 9t-0.5 13v13t-0.5 9t-0.5 9v13t0.5 13t1 9t1 9
t0.5 13v13t0.5 9t0.5 9v13q0 26 -18 43.5t-44 17.5q-10 -1 -19 -3q-8 -2 -16 -5t-13 -8q-11 -12 -14 -17t-14 -17l-30 -32q-11 -12 -14 -17t-14 -17t-15.5 -15.5t-15.5 -15.5t-14.5 -16.5t-14.5 -16.5t-17.5 -13.5t-17.5 -13.5t-13.5 -17.5t-13.5 -17.5q-5 -5 -13 -5
q-6 0 -10 4z" />
    <glyph glyph-name="n" unicode="n" horiz-adv-x="766" 
d="M481 329q-6 7 -9 11l-5.5 7.5l-5.5 7.5t-9 11l-30 36l-9 10.5l-6 7t-6.5 7t-9.5 10.5t-9 11t-5 7.5t-5 7.5t-9 11t-9 11t-5 8t-5 8t-9 11t-9.5 10.5l-6.5 6.5l-6.5 6.5t-9.5 10.5l-9 10.5l-6 7t-6.5 7t-9.5 10.5t-9.5 10.5t-6.5 7t-6.5 7t-9.5 10.5t-9 11l-5.5 7.5
l-5.5 7.5t-9 11t-8.5 11.5t-4.5 8.5t-4.5 8.5t-8.5 11.5q-9 11 -22.5 13.5t-27.5 2.5l-18 -2l-14 -4t-12 -7q-18 -18 -18 -44v-13t-0.5 -9t-0.5 -9v-13t1 -13t1.5 -9t1.5 -9t1 -13v-44q0 -8 -1 -13t-1.5 -9t-1.5 -9t-1 -13t0.5 -13t1 -9t1 -9t0.5 -13t-1 -13t-1.5 -9
t-1.5 -9t-1 -13t1 -13t2 -9t2 -9t1 -13t-0.5 -13t-0.5 -9t-0.5 -9t-0.5 -13t-0.5 -13t-1.5 -9t-1.5 -9t-0.5 -13v-44v-13t0.5 -9t0.5 -9v-13v-88q0 -26 20 -42.5t44 -16.5q11 0 22.5 5t20.5 13.5t15 19.5t6 22q0 17 -2.5 23t-2.5 23v92q0 17 1 23t1 23t-1.5 23t-1.5 23
t3.5 23t3.5 23v46q0 17 -3 23t-3 23q0 6 6 10.5t12 4.5q7 0 10 -4q6 -7 9 -11t5 -8t5 -8t9 -11t8.5 -11.5t5 -8t5 -8t8.5 -11.5t9.5 -10.5l6.5 -6.5l6.5 -6.5t9.5 -10.5t9 -11l5.5 -7.5l5.5 -7.5t9 -11t9.5 -10.5t6.5 -7l6 -7l9 -10.5t9.5 -10.5t6.5 -7l6 -7l9 -10.5t9 -11
l5.5 -7.5l5.5 -7.5t9 -11t9.5 -10.5t6.5 -7l6 -7l9 -10.5t9.5 -10.5t7 -6t7 -6t9.5 -10.5l30 -36q6 -7 8.5 -11.5t4 -8.5t4 -8.5t8.5 -11.5t9.5 -10.5l6.5 -6.5l6.5 -6.5t9.5 -10.5q8 -10 19.5 -16.5t24.5 -6.5q11 0 23 6t21.5 15t16 20.5t6.5 22.5v88v13t-0.5 9t-0.5 9v13
t-0.5 13t-0.5 9t-0.5 9t-0.5 13v88q0 8 0.5 13t1 9t1 9t0.5 13t-0.5 13t-0.5 9t-0.5 9t-0.5 13t-0.5 13t-1.5 9t-1.5 9t-0.5 13t1 13t2 9t2 9t1 13t-0.5 13t-1.5 9t-1.5 9t-0.5 13t0.5 13t0.5 9t0.5 9t0.5 13t-0.5 13t-0.5 9t-0.5 9t-0.5 13q0 31 -17 43.5t-44 18.5
q-32 0 -46 -15t-14 -46v-46q0 -17 -2.5 -23t-2.5 -23t0.5 -23t0.5 -23t2.5 -23t2.5 -23t-0.5 -23t-0.5 -23t-1.5 -23t-1.5 -23t-1 -23t-1 -23t0.5 -23t0.5 -23q0 -13 -11 -13q-3 0 -13 9t-21.5 21t-21.5 23.5t-14 15.5z" />
    <glyph glyph-name="o" unicode="o" 
d="M428 125q-21 0 -46 5q-3 0 -15.5 4.5l-26.5 10t-26.5 11t-15.5 6.5l-22.5 14.5t-15 12t-12 15l-14.5 22.5q-11 15 -21 40t-12 43q-2 11 -1 22t1 23q0 65 22 110.5t77 79.5q16 10 40 22t42 14q11 2 23 3t23 1t22.5 -4.5t22.5 -6.5t22 -2.5t22 -4.5q6 -2 17 -8t22.5 -13.5
l22 -14.5t14.5 -12q3 -3 11 -13.5l16.5 -22.5t15.5 -23t8 -15q2 -6 5 -18.5t5 -26t3.5 -26t1.5 -18.5q0 -14 -2.5 -31.5t-7 -35.5t-11 -34.5t-14.5 -28.5q-2 -3 -11 -13t-19.5 -20.5t-20.5 -19.5t-13 -11q-20 -12 -41.5 -19t-44.5 -10l-22.5 -4t-22.5 -2zM671 609
q-5 5 -14.5 13.5l-20 17.5l-20 16.5t-14.5 10.5q-10 5 -20.5 8t-21.5 7t-22 6l-22 4t-21.5 5.5t-21.5 5.5t-22.5 2h-22.5t-22.5 -1.5t-22.5 -3.5t-22 -2t-22 -2q-53 -11 -104.5 -42t-86.5 -73q-10 -13 -19 -29.5t-16 -34.5t-12.5 -35.5t-9.5 -33.5q-3 -11 -8 -22.5t-7 -23.5
q-2 -11 -0.5 -23t1.5 -24t-1.5 -24t0.5 -23q1 -8 4 -21t6.5 -26.5l7 -26t6.5 -20.5q1 -2 8 -14t16 -26l17 -26.5l10 -15.5q29 -35 66 -62t80 -42q11 -4 21 -9t21 -7q4 -1 8 -1h9h14q10 0 14 -1q11 -2 22.5 -3t22.5 -1q35 0 67.5 3.5t65.5 15.5l14 7l26 13.5l26 13.5t13 7
q5 4 18.5 18l28.5 31l28 33t17 24q15 26 24 46.5t14.5 41t7.5 42.5t2 52q0 37 -7.5 71.5t-21.5 68.5q-5 11 -8 22.5t-9 22.5l-12 21t-14 20q-8 9 -18.5 15t-19.5 14z" />
    <glyph glyph-name="p" unicode="p" horiz-adv-x="593" 
d="M200 543q0 15 7.5 23t18.5 11.5t23.5 4.5t23.5 1q13 0 17 -1t17 -1h14q35 0 55.5 -24.5t20.5 -57.5q0 -16 -1.5 -27t-6.5 -19t-14 -14t-24 -13q-14 -7 -26.5 -11.5t-17.5 -4.5h-68q-16 0 -26.5 12.5t-10.5 28.5q0 17 -1.5 23t-1.5 23t0.5 23t0.5 23zM385 691
q-9 3 -18.5 6.5t-19.5 5.5q-3 1 -10 1q-8 0 -15.5 -1t-15.5 -1t-12.5 0.5t-8.5 0.5t-8.5 0.5t-12.5 0.5h-12.5t-8.5 -0.5t-8.5 -0.5h-12.5t-12.5 -0.5t-8.5 -1t-8.5 -1t-12.5 -0.5t-12.5 1t-8.5 1.5t-8.5 1.5t-12.5 1q-11 0 -21.5 -6.5t-18.5 -16t-13 -21t-5 -21.5v-44
q0 -8 -1 -13t-1.5 -9t-1.5 -9t-1 -13t0.5 -13t1 -9t1 -9t0.5 -13t-0.5 -13t-0.5 -9t-0.5 -9t-0.5 -13t0.5 -13t0.5 -9t0.5 -9t0.5 -13t0.5 -13t0.5 -9t0.5 -9t0.5 -13t-0.5 -13t-0.5 -9t-0.5 -9t-0.5 -13t-0.5 -13t-1.5 -9t-1.5 -9t-0.5 -13t0.5 -13t0.5 -9t0.5 -9t0.5 -13
t-0.5 -13t-0.5 -9t-0.5 -9t-0.5 -13t0.5 -13t1.5 -9t1.5 -9t0.5 -13t-0.5 -13t-1 -9t-1 -9t-0.5 -13t0.5 -13t1 -9t1 -9t0.5 -13q0 -25 17.5 -45t43.5 -20q11 0 21.5 6t19 15.5t14 21t5.5 21.5v46q0 17 1.5 23t1.5 23v92q0 16 10.5 27.5t26.5 11.5q13 0 17 -2t17 -2t17 3
t17 3q8 0 16.5 -1.5t16.5 -1.5q2 0 4 0.5t4 0.5q51 8 94 42t64 81q8 20 10.5 41.5t2.5 42.5q0 23 -1.5 44t-9.5 42q-5 10 -12 18.5t-13 17.5q-19 29 -43.5 44.5t-54.5 27.5z" />
    <glyph glyph-name="q" unicode="q" 
d="M415 133q-2 -3 -1 -7.5t4 -6.5l1 -1q-11 0 -22 4t-22 6t-22 2.5t-22 4.5t-20.5 9.5l-19.5 11.5q-4 3 -13 11.5l-19 18.5t-18 19.5t-11 14.5t-7.5 16.5l-9.5 24.5t-8.5 25t-4.5 17q-3 21 -3 45q0 12 -1 23.5t1 22.5q3 23 11 44q3 10 13.5 24.5t23.5 29.5t27 28.5t24 19.5
q26 15 62 25.5t67 10.5q11 0 22.5 -3.5t22.5 -5.5t22.5 -2t22.5 -4t19.5 -11.5t18.5 -13.5t21 -10.5t19 -12.5q25 -23 38.5 -55t17.5 -65q2 -11 5 -22t3 -23q0 -25 -3 -48q-2 -12 -5.5 -23.5t-7.5 -22.5q-2 -5 -10 -18.5t-18.5 -27.5t-20.5 -25t-16 -11q-3 0 -7 2l-40 23
q-9 5 -18.5 9t-19.5 4q-15 0 -26.5 -10.5t-19.5 -22.5q-6 -8 -9 -13t-6 -9l-6.5 -8.5t-8.5 -13.5zM778 352q0 25 -3 47q-2 12 -6.5 23.5t-7.5 22.5q-3 12 -3.5 24.5t-5.5 23.5q-2 6 -12.5 23l-23.5 36.5l-25.5 37t-19.5 23.5q-55 51 -115 69t-132 18q-9 0 -18.5 1.5
t-18.5 1.5h-8q-32 -4 -58.5 -11t-50 -18.5t-45.5 -27.5t-45 -37q-9 -8 -18.5 -15.5t-17.5 -16.5q-8 -10 -12 -21t-10 -22t-14 -20.5t-13 -20.5t-5.5 -23.5t-3.5 -24.5q-7 -26 -10 -46.5t-3 -46.5q0 -12 -0.5 -24t1.5 -23q2 -12 7 -30.5t12 -37.5t14.5 -37t14.5 -30
q6 -11 10 -22t12 -21q21 -26 50 -47t58 -37q10 -5 19 -12t20 -11t29 -7.5t37.5 -5.5t37.5 -3.5t30 -1.5q11 0 21 -1.5t21 -1.5q2 0 5 0.5t5 0.5q13 2 25 7t24 8q11 3 22 5.5t22 6.5q2 1 6 1t6 -1q11 -3 15 -6t16 -10q7 -4 10.5 -7t7 -5t7 -5t10.5 -7l35 -19.5t36 -11.5
t28.5 9t21.5 22q2 9 4 17t2.5 16t-1.5 13q-3 11 -9 22t-17 18t-16 7t-16 7q-8 5 -12.5 6t-9.5 5q-4 3 -4 7.5t3 7.5l12 12t11 14q2 3 8 14.5l13 24.5l13 24.5t7 14.5q4 11 4 22.5t2 22.5t3.5 21.5t3.5 21.5q1 11 4.5 21.5t3.5 21.5v4z" />
    <glyph glyph-name="r" unicode="r" horiz-adv-x="599" 
d="M193 539q0 14 7.5 22t18.5 11.5t24 4t23 0.5q13 0 17 1.5t17 1.5q8 0 20.5 -4t25 -10t23 -13t14.5 -14q8 -15 8 -46q0 -18 -1.5 -28.5t-6 -18t-13.5 -13t-25 -12.5q-14 -7 -26.5 -11.5t-17.5 -4.5q-13 0 -17 2.5t-17 2.5t-17 -1.5t-17 -1.5q-16 0 -26.5 11.5t-10.5 27.5
v23t-1 23q0 9 -0.5 14t-1 9.5t-0.5 9.5v14zM450 343q8 8 17 14t15 15q7 10 13.5 26.5t12 34.5t8.5 35t3 27q0 3 -2 15.5t-5 26.5t-6 26.5t-5 15.5q-1 3 -8 14.5l-15 23.5l-15 22.5t-9 12.5q-8 7 -18 10.5t-19 8.5q-8 5 -16 12t-18 11q-4 2 -15 3.5t-23.5 3.5t-24 3t-16.5 1
h-12.5t-8.5 -0.5t-8.5 -0.5h-12.5t-12.5 0.5t-8.5 0.5t-8.5 0.5t-12.5 0.5h-84q-23 0 -40.5 -20t-17.5 -42q0 -8 -0.5 -13t-1 -9t-1 -9t-0.5 -13v-44v-13t-0.5 -9t-0.5 -9v-13t0.5 -13t1.5 -9t1.5 -9t0.5 -13v-44q0 -8 -0.5 -13t-1 -9t-1 -9t-0.5 -13t0.5 -13t0.5 -9t0.5 -9
t0.5 -13v-13t-0.5 -9t-0.5 -9v-13t-0.5 -13t-1 -9t-1 -9t-0.5 -13t0.5 -13t1.5 -9t1.5 -9t0.5 -13v-88q0 -8 -0.5 -13t-1 -9t-1 -9t-0.5 -13q0 -23 19 -42.5t42 -19.5v-1q25 0 41.5 20t16.5 43v48q0 9 1 14.5t2.5 10t2.5 9.5t1 14t-1 14.5t-2 10t-2 9.5t-1 14t1 14.5t1.5 10
t1.5 9.5t1 14q0 14 8 24t22 10v1q11 0 19.5 -7t14.5 -16l24 -40q5 -7 7 -12t4.5 -8.5t5 -8t6.5 -12.5q5 -7 7 -12t4.5 -8.5t5 -8t6.5 -12.5q5 -7 7.5 -11.5t5 -8l5.5 -7.5t7 -12q5 -7 7.5 -11.5t5.5 -8t6 -7.5t7 -12l15 -23.5t15 -19t19 -14.5t27 -10q22 0 39.5 13t20.5 36
t-8 41q-9 14 -11.5 19.5t-11.5 19.5t-12.5 18.5t-12.5 18.5t-13 18.5t-13 18.5t-10 20t-10 20t-14 17.5t-14 17.5q-3 5 0 11t8 8q14 6 25 15.5l22 19.5z" />
    <glyph glyph-name="s" unicode="s" horiz-adv-x="663" 
d="M449 382q-12 5 -23.5 10.5t-24.5 8.5t-25.5 5t-25.5 5l-43 11q-13 3 -24 5t-20 5q-14 5 -23 10.5t-15 10.5q-4 4 -7.5 10.5t-6 13.5t-3.5 12l-1 5q0 15 9 29.5t23 26t30 18.5t30 7q8 0 15 -1t15 -1h20q14 0 23 -1.5t16.5 -5t14.5 -10l17 -16.5q9 -9 21.5 -13t24.5 -4
q6 0 13.5 3t13.5 8q7 4 15 10q9 9 15 19.5t6 22.5q0 6 -3 13.5t-7 13.5l-11 15l-17.5 18t-18.5 16q-29 19 -68.5 28t-74.5 9q-12 0 -23.5 -3t-22.5 -5q-13 -2 -30 -7t-34.5 -12t-33 -15.5t-26.5 -17.5q-14 -12 -27 -29t-23 -37.5t-16 -41.5t-6 -40q0 -13 4.5 -31t12 -36
t17 -34.5t19.5 -26.5q29 -26 63 -39.5t71 -21.5q13 -3 25 -8t25 -8l43 -11q14 -3 31 -8t32 -13.5t25.5 -21t10.5 -30.5q0 -5 -3 -14t-7.5 -18.5t-9.5 -17t-9 -10.5q-7 -4 -21 -8t-29.5 -7t-30.5 -4.5t-24 -1.5q-5 0 -23 1.5t-38 3.5t-37 4.5t-21 4.5q-14 6 -20.5 13.5
l-10.5 12.5l-15 9q-6 3 -13.5 6t-13.5 3q-14 0 -23 -2.5t-20 -11.5l-1 1q-10 -8 -16.5 -18.5t-7.5 -22.5t5 -22.5t14 -20.5q8 -8 14.5 -16.5t15.5 -15.5q32 -26 77.5 -35t85.5 -12q11 -1 21.5 -3t21.5 -2q12 0 23 1.5t22 3.5q12 2 23.5 2t22.5 2q8 2 19.5 6.5t23.5 10
t23 11.5t18 11q4 3 13.5 12.5l19.5 20t18.5 20.5t10.5 14q10 21 15 44q3 11 3.5 23t0.5 23q0 65 -37.5 111t-96.5 68z" />
    <glyph glyph-name="t" unicode="t" horiz-adv-x="709" 
d="M137 576q15 0 20 3t20 3t20 -2t20 -2t20 0.5t20 0.5q16 0 25.5 -11t9.5 -27q0 -8 1 -13t2 -9t2 -9t1 -13t-0.5 -13t-1.5 -9t-1.5 -9t-0.5 -13t0.5 -13t1 -9t1 -9t0.5 -13v-13t-0.5 -9t-0.5 -9v-13t0.5 -13t0.5 -9t0.5 -9t0.5 -13t-1 -13t-1.5 -9t-1.5 -9t-1 -13t0.5 -13
t1.5 -9t1.5 -9t0.5 -13t-0.5 -13t-0.5 -9t-0.5 -9t-0.5 -13t-0.5 -13t-0.5 -9t-0.5 -9t-0.5 -13t0.5 -13t0.5 -9t0.5 -9t0.5 -13t0.5 -13t1.5 -9t1.5 -9t0.5 -13q0 -58 58 -58q9 1 18 3q8 2 15 4.5t11 6.5q8 8 11 19.5t3 24.5q0 8 1 13t1.5 9t1.5 9t1 13v88q0 8 -1 13
t-1.5 9t-1.5 9t-1 13t1 13t1.5 9t1.5 9t1 13v13t-0.5 9t-0.5 9v13v88q0 8 0.5 13t1 9t1 9t0.5 13v13t-0.5 9t-0.5 9v13v44q0 16 10 28.5t26 12.5q15 0 20 -2.5t20 -2.5t20 -1t20 -1t20 3t20 3q29 0 44.5 14.5t15.5 43.5q-2 9 -5 17q-2 7 -5 14t-8 11q-15 15 -42 15
q-8 0 -13 1t-9 2t-9 2t-13 1t-13 -0.5t-9 -0.5t-9 -0.5t-13 -0.5t-13 -0.5t-9 -1.5t-9 -1.5t-13 -0.5t-13 0.5t-9 1t-9 1t-13 0.5t-13 -0.5t-9 -1t-9 -1t-13 -0.5t-13 1t-9 1.5t-9 1.5t-13 1t-13 -0.5t-9 -1.5t-9 -1.5t-13 -0.5t-13 0.5t-9 1.5t-9 1.5t-13 0.5h-13t-9 0.5
t-9 0.5h-13t-13 -0.5t-9 -0.5t-9 -0.5t-13 -0.5q-25 0 -43.5 -18t-18.5 -43q3 -9 6 -17q3 -7 6.5 -13.5t7.5 -11.5q8 -8 18.5 -14.5t23.5 -6.5z" />
    <glyph glyph-name="u" unicode="u" horiz-adv-x="705" 
d="M507 259q0 -6 -3 -17t-7.5 -23t-9 -22.5t-8.5 -15.5q-3 -4 -11.5 -12t-19 -16.5t-20 -14.5t-14.5 -8q-19 -6 -42 -6q-24 0 -44 1.5t-36.5 7.5t-31 17.5t-29.5 31.5q-14 19 -19 36.5t-5 40.5q0 9 -0.5 14.5t-1.5 10t-1.5 9.5t-0.5 14t0.5 14.5t1.5 10t1.5 9.5t0.5 14
t-0.5 14.5t-0.5 10t-0.5 9.5t-0.5 14t-0.5 14.5t-0.5 10t-0.5 9.5t-0.5 14t0.5 14.5t1.5 10t1.5 9.5t0.5 14v14.5t-0.5 10t-0.5 9.5v14v14.5t-0.5 10t-0.5 9.5v14v48q0 27 -18 42.5t-44 15.5q-9 -2 -16 -4t-13.5 -5t-11.5 -8q-17 -17 -17 -41q0 -9 -1 -14t-1.5 -9.5
t-1.5 -10t-1 -14.5t0.5 -14t0.5 -9.5t0.5 -10t0.5 -14.5v-14t0.5 -9.5t0.5 -10v-14.5t-1 -14t-1.5 -9.5t-1.5 -10t-1 -14.5v-14t0.5 -9.5t0.5 -10v-14.5t0.5 -14t0.5 -9.5t0.5 -10t0.5 -14.5t-0.5 -14t-0.5 -9.5t-0.5 -10t-0.5 -14.5t0.5 -14t1.5 -9.5t1.5 -10t0.5 -14.5
q0 -26 4 -44.5t13 -42.5q4 -11 6 -22t7 -21q17 -28 43.5 -51t54.5 -40q38 -20 79.5 -28.5t83.5 -8.5q12 0 29 3t35.5 8.5t35.5 11.5t28 12q29 18 52 43t40 54q5 10 12 18.5t11 19.5q8 24 10 43.5t2 44.5q0 9 0.5 14.5t1.5 10t1.5 9.5t0.5 14v14.5t0.5 10t0.5 9.5v14
t-0.5 14.5t-1.5 10t-1.5 9.5t-0.5 14t0.5 14.5t0.5 10t0.5 9.5t0.5 14v14.5t0.5 10t0.5 9.5v14t-0.5 14.5t-0.5 10t-0.5 9.5t-0.5 14v48v14.5t-0.5 10t-0.5 9.5v14q0 29 -17 42t-43 18q-10 0 -21.5 -5.5t-21 -14t-15.5 -19t-6 -21.5q0 -9 1 -14t2.5 -9.5t2.5 -10t1 -14.5
t-1 -14t-2.5 -9.5t-2.5 -10t-1 -14.5v-14t0.5 -9.5t0.5 -10v-14.5v-48q0 -9 0.5 -14t0.5 -9.5t0.5 -10t0.5 -14.5t-0.5 -14t-1 -9.5t-1 -10t-0.5 -14.5t0.5 -14t1 -9.5t0.5 -10v-14.5t-0.5 -14t-0.5 -9.5v-10v-14.5z" />
    <glyph glyph-name="v" unicode="v" horiz-adv-x="749" 
d="M360 232q-3 8 -4.5 12.5t-2 9t-2 9t-4.5 12.5t-5 12.5t-4.5 8t-4.5 8t-5 12.5t-4 13t-2 9t-2 9t-4 13t-5 12.5t-4.5 8t-4.5 8t-5 12.5t-4.5 12.5l-3 9l-3 9t-4.5 12.5t-5 12.5t-4 8t-4 8t-5 12.5t-4 13t-2 9t-2 9t-4 13t-5.5 12t-4.5 8t-4.5 8t-5.5 12t-4 13t-1 9t-1 9
t-4 13l-17 42q-3 7 -10 14.5t-15.5 13.5t-18 10t-17.5 4q-9 0 -18.5 -4.5t-17.5 -11.5t-14.5 -15.5t-9.5 -16.5q-3 -9 -3.5 -19.5t3.5 -20.5l16 -44q3 -8 5.5 -12.5t4.5 -8.5t4.5 -8.5t5.5 -12.5t4.5 -13t2.5 -9.5t2.5 -9.5t4.5 -13l17 -44q3 -8 4 -13t1.5 -9.5t1.5 -10
t4 -13.5t5.5 -12.5t5.5 -8.5t5.5 -8.5t5.5 -12.5t4.5 -13t2.5 -9.5t2.5 -9.5t4.5 -13t4.5 -13t3 -9.5t3 -9.5t4.5 -13l17 -44q3 -8 4.5 -13t2.5 -9.5t2.5 -9.5t4.5 -13l15 -44q3 -8 5.5 -12.5t5 -8.5t5 -8.5t5.5 -12.5t4 -13t1.5 -9.5t1.5 -10t4 -13.5q11 -26 31 -36t46 -10
q25 0 44.5 11.5t29.5 35.5l5 13t4.5 8.5t4.5 8.5l5 13t4 13t2 9.5t2 9.5t4 13t5.5 12.5t4.5 8.5t4.5 8.5t5.5 12.5t4 13.5t1 10t1 9.5t4 13l16 44l5 13t4.5 8.5t4.5 8.5l5 13l5 13t4 8.5t4 8.5l5 13l32 88q3 8 4 13.5t2 10t2 9.5t4 13l17 44q3 8 4.5 13t2.5 9.5t2.5 9.5
t4.5 13l5 13t4.5 8.5t4.5 8.5l5 13q4 10 5.5 20.5t-1.5 19.5q-9 29 -27.5 35.5t-44.5 6.5q-20 0 -31 -9t-19 -28l-30 -84q-3 -8 -5 -12.5t-4 -8t-4 -8t-5 -12.5t-4 -12.5l-2 -9l-2 -9t-4 -12.5t-5.5 -12l-5 -8l-5 -8t-5.5 -12t-4.5 -12.5t-2.5 -9t-2.5 -9t-4.5 -12.5
t-4.5 -12.5t-2.5 -9t-2.5 -9t-4.5 -12.5l-17 -42q-3 -8 -4.5 -12.5t-2.5 -9t-2.5 -9t-4.5 -12.5l-16 -42q-3 -8 -8 -8t-8 8z" />
    <glyph glyph-name="w" unicode="w" horiz-adv-x="992" 
d="M596 237q-4 10 -5 15t-2 9t-1.5 9.5t-3.5 15.5l-14 52q-3 11 -11 20t-19 16t-23 10.5t-23 3.5q-26 0 -46.5 -12.5t-30.5 -37.5l-20 -52q-4 -10 -5.5 -16t-2 -11t-2 -11t-5.5 -16q-3 -8 -12 -8q-10 0 -13 9l-17 42q-3 8 -4.5 12.5t-2.5 9t-2.5 9t-4.5 12.5t-5.5 12.5
l-4.5 8l-4.5 8t-5.5 12.5t-4 13t-1 9t-1 9t-4 13t-6 12l-5.5 7.5l-5.5 7.5t-6 12t-4 12.5l-2 9l-2 9t-4 12.5t-4.5 12.5t-2.5 9t-2.5 9t-4.5 12.5l-17 42q-3 8 -5 12.5t-4.5 8t-4.5 8t-5 12.5t-4 13t-1 9t-1 9t-4 13q-6 15 -26 25t-35 13q-44 0 -58 -44q-3 -9 -5 -19t2 -20
l15 -44q3 -8 5.5 -12.5t5 -8.5t5 -8.5t5.5 -12.5t4 -13t2 -9.5t2 -9.5t4 -13t5.5 -12.5t4.5 -8.5t4.5 -8.5t5.5 -12.5t4.5 -13t2.5 -9.5t2.5 -9.5t4.5 -13l17 -44q3 -8 4.5 -13t2.5 -9.5t2.5 -9.5t4.5 -13l5 -13t4.5 -8.5t4.5 -8.5l5 -13l15 -44q3 -8 4.5 -13t2 -9.5t2 -9.5
t4.5 -13l5 -13t4.5 -8.5t4.5 -8.5l5 -13t4 -13t2 -9.5t2 -9.5t4 -13t5.5 -13t4.5 -8.5t4.5 -8.5t5.5 -13q9 -22 28 -36t43 -14l18 2q8 2 15.5 3.5t12.5 5.5q6 4 12.5 15.5t13.5 25.5t12.5 27.5l8.5 20.5l6.5 14.5t5 10t5 10l6.5 14.5q3 9 14 9q8 0 11 -7q4 -9 5 -15t2 -11
t2 -11t5 -15l6.5 -14.5l4.5 -10l4.5 -10l6.5 -14.5q4 -10 12.5 -18.5t19 -15t22 -10.5t21.5 -4t19 1q8 1 15.5 2.5t12.5 5.5q10 7 17 17.5t12 21.5l16 44q3 8 4.5 13t2 9.5t2 9.5t4.5 13l5 13t4.5 8.5t4.5 8.5l5 13t4 13.5t1 10t1 9.5t4 13t5.5 12.5t5.5 8.5t5.5 8.5
t5.5 12.5t4.5 13t3 9.5t3 9.5t4.5 13l15 44q3 8 4.5 13t2 9.5t2 9.5t4.5 13t5.5 12.5t5 8.5t5 8.5t5.5 12.5t4 13.5t2 10t2 9.5t4 13t5.5 12.5t4.5 8.5t4.5 8.5t5.5 12.5t4.5 13t2 9.5t2 9.5t4.5 13l16 44q8 21 2 39q-6 20 -23 30.5t-37 10.5q-7 0 -14 -1q-5 -1 -11 -2
t-10 -4q-8 -5 -14.5 -12t-10.5 -16q-3 -8 -4 -13t-2 -9t-2 -9t-4 -13t-5.5 -12.5l-4.5 -8l-4.5 -8t-5.5 -12.5t-4.5 -12.5t-2.5 -9t-2.5 -9t-4.5 -12.5l-47 -126q-3 -8 -5 -12.5t-4 -8t-4 -8t-5 -12.5l-16 -42q-3 -8 -4 -12.5l-2 -9l-2 -9t-4 -12.5t-5.5 -12l-5 -8l-5 -8
t-5.5 -12q-3 -9 -11 -9q-6 0 -9 8z" />
    <glyph glyph-name="x" unicode="x" horiz-adv-x="630" 
d="M438 674q-8 -14 -11.5 -18.5t-11.5 -18.5t-9.5 -20t-9.5 -20l-22 -38q-8 -14 -10 -19.5t-10 -19.5l-22 -38q-3 -6 -12 -6q-8 0 -13 7l-22 38q-8 14 -10.5 19.5t-10.5 19.5l-22 38q-8 14 -10.5 19.5t-10.5 19.5t-10.5 19.5t-10.5 19.5q-4 7 -13 12t-18 9q-11 5 -23 8
q-9 0 -19 -4.5t-19 -12t-15.5 -17t-7.5 -18.5q-3 -20 10 -41q5 -7 7.5 -11.5t5 -8l5.5 -7.5t7 -12l24 -40q5 -7 7 -12l3.5 -9t4 -8.5t6.5 -12.5l8 -11.5t5.5 -7.5l6 -7t7.5 -12l24 -40q5 -7 7.5 -11.5t5 -8l5.5 -7.5t7 -12q5 -9 5.5 -21.5t-4.5 -21.5q-4 -7 -7 -11.5
t-6 -7.5t-5.5 -7l-7.5 -12q-4 -7 -7 -11.5t-6 -8t-5.5 -7.5l-7.5 -12q-4 -7 -6.5 -12t-5 -8.5t-4.5 -8t-7 -12.5q-4 -7 -7 -11.5t-6 -8t-5.5 -7.5l-7.5 -12q-4 -7 -6 -12t-3.5 -9.5l-3 -9t-6.5 -12.5q-4 -7 -7.5 -11.5l-6 -7.5t-5.5 -7t-8 -12q-6 -10 -8 -20.5t0 -21.5
q4 -29 18.5 -39t41.5 -10v1q34 0 50 27l22 38q8 14 12.5 18t12.5 18t8.5 20.5t8.5 20.5t11.5 18.5t11.5 18.5l21 38q5 6 13 6q9 0 12 -6q8 -14 9.5 -20t9.5 -20t12 -18.5t12 -18.5t9.5 -20t9.5 -20t13 -17.5t13 -17.5t10.5 -19.5t10.5 -19.5t21.5 -23.5t29.5 -9.5v2
q8 0 18 5.5t19 13.5t16 17t8 17q2 11 -2 21t-10 20l-72 120q-4 8 -6 12.5t-3.5 8.5l-3.5 9t-7 12q-4 8 -7.5 11.5l-7 7t-6.5 7.5l-8 11l-24 40q-5 9 -2.5 19.5t7.5 19.5q5 8 7 12.5t3.5 8.5t4 9t6.5 12l7.5 12t5.5 7.5t6 8t7 11.5q5 8 7 12.5t3.5 8.5t4 9t6.5 12l7.5 12
t5.5 7.5t6 8t7 11.5q5 8 7 12.5t3.5 8.5t4 9t6.5 12l7.5 12t5 7.5l5.5 8t7 11.5q6 10 10 20t2 21q-4 26 -21 38.5t-42 12.5q-16 0 -29 -8.5t-21 -22.5z" />
    <glyph glyph-name="y" unicode="y" horiz-adv-x="678" 
d="M330 449q-8 14 -12 18.5t-12 18.5t-9.5 20t-9.5 20t-13 17.5t-13 17.5t-10.5 19.5t-10.5 19.5t-11.5 18.5t-11.5 18.5t-8.5 20.5t-8.5 20.5q-4 7 -13 11.5t-19 7.5q-11 3 -23 5q-26 0 -42.5 -9.5t-20.5 -38.5q-2 -11 0.5 -22.5t8.5 -21.5l47 -76q9 -14 13.5 -18t13.5 -18
t13 -18.5t13 -18.5t9.5 -20.5t9.5 -20.5l24 -38q9 -14 13.5 -18t13.5 -18q1 -2 6.5 -11l11.5 -19t10.5 -18.5t4.5 -9.5q0 -8 -1 -13t-2 -9t-2 -9t-1 -13t0.5 -13t1 -9t1 -9t0.5 -13t-0.5 -13t-0.5 -9t-0.5 -9t-0.5 -13t1 -13t2 -9t2 -9t1 -13t-0.5 -13t-0.5 -9t-0.5 -9
t-0.5 -13q0 -28 17.5 -41t41.5 -18q23 0 42.5 16.5t19.5 41.5q0 8 -0.5 13t-1 9t-1 9t-0.5 13t0.5 13t1 9t1 9t0.5 13v44q0 8 0.5 13t0.5 9t0.5 9t0.5 13t-1 13t-2 9t-2 9t-1 13q0 11 7 21l23 38q9 14 15 17.5t15 17.5t10.5 20t10.5 20t13 18.5t13 18.5t10 20.5t10 20.5
l72 114q13 21 10 41q-4 26 -20.5 36.5t-40.5 12.5q-32 0 -49 -28q-8 -14 -13 -18t-13 -18l-22 -38q-8 -14 -10.5 -19.5t-10.5 -19.5t-10 -19.5t-10 -19.5t-12.5 -18t-12.5 -18t-12 -18.5t-12 -18.5q-7 -12 -20 -12q-15 0 -21 11z" />
    <glyph glyph-name="z" unicode="z" horiz-adv-x="690" 
d="M504 703q-17 0 -23 -2t-23 -2t-23 0.5t-23 0.5t-23 2.5t-23 2.5t-23 -2.5t-23 -2.5t-23 0.5t-23 0.5t-23 0.5t-23 0.5t-23 -1t-23 -1t-23 2t-23 2q-29 0 -43 -18.5t-20 -44.5q0 -26 19.5 -44t44.5 -18q8 0 13 -0.5t9 -1t9 -1t13 -0.5t13 1t9 1.5t9 1.5t13 1t13 -0.5t9 -1
t9 -1t13 -0.5t13 0.5t9 1t9 1t13 0.5t13 -1t9 -1.5t9 -1.5t13 -1h44q8 0 12 -5.5t-1 -11.5q-5 -7 -7.5 -11t-5 -7.5t-5 -7.5t-7.5 -11t-8.5 -10t-7.5 -6t-7.5 -6t-8.5 -10t-7 -11.5t-3.5 -8.5t-3.5 -8.5t-7 -11.5t-8.5 -10.5t-6.5 -6t-6.5 -6t-8.5 -10.5t-7 -11.5t-4 -8
t-4 -8t-7 -11.5l-26 -36q-5 -7 -8.5 -10.5t-7 -6t-7 -6t-8.5 -10.5t-7.5 -11t-4.5 -8t-4.5 -8t-7.5 -11t-8 -10.5l-6 -7l-6 -7t-8 -10.5l-26 -36q-5 -7 -7.5 -11t-5 -7.5t-5 -7.5t-7.5 -11l-50 -72q-5 -8 -9.5 -17t-4.5 -19l6 -18q3 -7 7 -14t8 -12q18 -18 44 -18
q17 0 23 1.5t23 1.5t23 -0.5t23 -0.5h46q17 0 23 -1t23 -1t23 -1t23 -1t23 1.5t23 1.5t23 -1t23 -1t23 0.5t23 0.5t23 0.5t23 0.5q27 0 42 20t23 42q0 26 -19.5 44t-44.5 18q-8 0 -13 -0.5t-9 -1.5t-9 -1.5t-13 -0.5t-13 1t-9 1.5t-9 1.5t-13 1t-13 -1t-9 -2t-9 -2t-13 -1
t-13 0.5t-9 1t-9 1t-13 0.5h-13t-9 -0.5t-9 -0.5h-13h-44q-8 0 -13 8.5t0 14.5q5 7 8.5 10l7 6l7 6t8.5 10t7 11.5t4 8t4 8t7 11.5t7.5 11t5 7.5t5 7.5t7.5 11l25 36q5 7 8 10.5t6 6.5t6 6.5t8 10.5t7.5 11l4.5 7.5l4.5 7.5t7.5 11t8.5 10.5t6.5 6t6.5 6t8.5 10.5l26 36
q5 7 7 11.5l3.5 8l3.5 8t7 11.5t8.5 10.5t6.5 6t6.5 6t8.5 10.5t7.5 11t4 8t4 8t7.5 11t8.5 10.5l6.5 6.5t6 6.5t8 10.5t7.5 11t4 8t4 8t7.5 11q10 14 10 35q-1 10 -3 18l-4 15.5t-7 11.5q-8 8 -19.5 13.5t-24.5 5.5h-46z" />
    </font>
</defs>
</svg>
